<?xml version="1.0" encoding="utf-8"?>
<!-- Generator: Adobe Illustrator 17.0.0, SVG Export Plug-In . SVG Version: 6.00 Build 0)  -->
<!DOCTYPE svg PUBLIC "-//W3C//DTD SVG 1.1//EN" "http://www.w3.org/Graphics/SVG/1.1/DTD/svg11.dtd">
<svg version="1.1" id="Layer_1" xmlns="http://www.w3.org/2000/svg" xmlns:xlink="http://www.w3.org/1999/xlink" x="0px" y="0px"
	 width="154px" height="40px" viewBox="0 0 154 40" enable-background="new 0 0 154 40" xml:space="preserve">
<g>
	<path d="M154,34.245c0,3.549-2.607,5.755-6.153,5.755H6.424C2.876,40,0,37.122,0,33.573V6.426C0,2.877,2.876,0,6.424,0h141.423
		C151.393,0,154,2.877,154,6.426V34.245z"/>
</g>
<g>
	<g>
		<g id="bag_2_">
			<g id="handles_2_">
				<path fill="#FFFFFF" d="M19.321,8.552c-1.155,0.405-2,0.753-2,2.962v1.06l0.692-0.139v-0.916
					c-0.017-1.498,0.372-1.811,1.383-2.248C19.39,8.989,19.365,8.748,19.321,8.552z"/>
				<path fill="#FFFFFF" d="M21.334,8.078c0.047,0.215,0.082,0.447,0.107,0.697c1.809-0.26,1.775,0.486,1.775,2.045v0.574
					l0.685-0.14V10.82C23.902,8.4,23.523,7.752,21.334,8.078z"/>
				<path fill="#FFFFFF" d="M14.203,13.199v-3.183C14.181,8.043,15.199,7.438,17.078,7c2.832-0.664,3.012,1.16,3.012,2.322v2.698
					l0.694-0.139v-2.5c-0.007-2.198-0.693-3.843-3.843-3.129c-1.697,0.385-3.432,0.817-3.432,3.698v3.387L14.203,13.199z"/>
			</g>
			<path fill="#FFFFFF" d="M27.367,11.4L8.315,15.209v13.858l19.052,3.811l3.809-1.386V12.786L27.367,11.4z M16.68,26.199
				l-4.269-0.596v-3.572h4.269V26.199z M16.68,21.713h-4.269v-3.377l4.269-0.596V21.713z M22.497,27.013l-5.501-0.781v-4.2h5.501
				V27.013z M22.497,21.713h-5.501v-4.006l5.501-0.78V21.713z"/>
		</g>
	</g>
	<g>
		<g>
			<path fill="#FFFFFF" d="M45.346,13.855c0,0.78-0.171,1.469-0.513,2.065s-0.828,1.056-1.459,1.379
				c-0.63,0.322-1.352,0.483-2.164,0.483h-2.025v-7.663H41.3C43.997,10.121,45.346,11.365,45.346,13.855z M44.405,13.877
				c0-1.963-1.042-2.944-3.126-2.944h-1.197v6.039h1.138c1.012,0,1.795-0.27,2.351-0.81C44.127,15.622,44.405,14.86,44.405,13.877z"
				/>
			<path fill="#FFFFFF" d="M51.741,15.026c0,0.869-0.247,1.568-0.74,2.097c-0.494,0.529-1.155,0.794-1.985,0.794
				c-0.809,0-1.455-0.257-1.937-0.772c-0.483-0.515-0.724-1.192-0.724-2.033c0-0.905,0.248-1.62,0.743-2.146
				s1.177-0.788,2.047-0.788c0.812,0,1.448,0.254,1.908,0.761C51.512,13.447,51.741,14.143,51.741,15.026z M50.844,15.058
				c0-0.688-0.152-1.215-0.457-1.582c-0.305-0.367-0.74-0.55-1.307-0.55c-0.563,0-1.008,0.188-1.336,0.564
				c-0.328,0.375-0.491,0.906-0.491,1.589c0,0.656,0.165,1.168,0.494,1.537s0.774,0.553,1.333,0.553c0.57,0,1.006-0.182,1.31-0.545
				C50.692,16.26,50.844,15.738,50.844,15.058z"/>
			<path fill="#FFFFFF" d="M59.922,12.312l-1.641,5.472h-0.908l-1.127-3.917c-0.04-0.135-0.068-0.303-0.085-0.502h-0.021
				c-0.011,0.125-0.048,0.289-0.112,0.492l-1.224,3.928h-0.876l-1.651-5.472h0.919l1.127,4.114c0.036,0.143,0.061,0.307,0.075,0.492
				h0.043c0.007-0.135,0.041-0.303,0.102-0.502l1.256-4.104h0.801l1.138,4.125c0.036,0.139,0.061,0.303,0.075,0.492h0.043
				c0.007-0.171,0.036-0.335,0.085-0.492l1.117-4.125H59.922z"/>
			<path fill="#FFFFFF" d="M65.485,17.783h-0.876v-3.121c0-1.158-0.424-1.737-1.272-1.737c-0.431,0-0.792,0.163-1.082,0.489
				c-0.29,0.326-0.436,0.742-0.436,1.248v3.121h-0.876v-5.472h0.876v0.908h0.021c0.41-0.695,1.008-1.042,1.795-1.042
				c0.602,0,1.061,0.196,1.376,0.588c0.315,0.392,0.473,0.948,0.473,1.667V17.783z"/>
			<path fill="#FFFFFF" d="M67.959,17.783h-0.876V9.682h0.876V17.783z"/>
			<path fill="#FFFFFF" d="M74.68,15.026c0,0.869-0.247,1.568-0.74,2.097c-0.494,0.529-1.155,0.794-1.985,0.794
				c-0.809,0-1.455-0.257-1.937-0.772c-0.483-0.515-0.724-1.192-0.724-2.033c0-0.905,0.248-1.62,0.743-2.146
				s1.177-0.788,2.047-0.788c0.812,0,1.448,0.254,1.908,0.761C74.451,13.447,74.68,14.143,74.68,15.026z M73.783,15.058
				c0-0.688-0.152-1.215-0.457-1.582c-0.305-0.367-0.74-0.55-1.307-0.55c-0.563,0-1.008,0.188-1.336,0.564
				c-0.328,0.375-0.491,0.906-0.491,1.589c0,0.656,0.165,1.168,0.494,1.537s0.774,0.553,1.333,0.553c0.57,0,1.006-0.182,1.31-0.545
				C73.631,16.26,73.783,15.738,73.783,15.058z"/>
			<path fill="#FFFFFF" d="M79.928,17.783h-0.877v-0.855h-0.021c-0.381,0.659-0.941,0.989-1.682,0.989
				c-0.527,0-0.949-0.144-1.267-0.43c-0.317-0.287-0.476-0.672-0.476-1.157c0-1.019,0.602-1.614,1.806-1.785l1.64-0.23
				c0-0.926-0.375-1.389-1.126-1.389c-0.659,0-1.254,0.223-1.785,0.668v-0.898c0.16-0.121,0.435-0.238,0.823-0.35
				c0.388-0.112,0.734-0.168,1.037-0.168c1.286,0,1.929,0.682,1.929,2.046V17.783z M79.051,15.015l-1.324,0.187
				c-0.453,0.064-0.77,0.172-0.951,0.323s-0.272,0.396-0.272,0.735c0,0.274,0.098,0.494,0.294,0.66
				c0.196,0.166,0.447,0.248,0.753,0.248c0.435,0,0.793-0.153,1.077-0.459c0.283-0.306,0.424-0.689,0.424-1.149V15.015z"/>
			<path fill="#FFFFFF" d="M86.233,17.783h-0.876v-0.93h-0.021c-0.406,0.709-1.033,1.063-1.881,1.063
				c-0.691,0-1.242-0.249-1.651-0.746c-0.41-0.497-0.614-1.161-0.614-1.991c0-0.905,0.227-1.631,0.681-2.18
				c0.454-0.548,1.062-0.823,1.825-0.823c0.748,0,1.295,0.296,1.641,0.887h0.021V9.682h0.876V17.783z M85.357,15.309v-0.807
				c0-0.452-0.151-0.828-0.452-1.127s-0.667-0.449-1.098-0.449c-0.527,0-0.946,0.195-1.256,0.585
				c-0.311,0.39-0.465,0.931-0.465,1.622c0,0.627,0.146,1.123,0.438,1.488c0.293,0.365,0.687,0.547,1.182,0.547
				c0.48,0,0.876-0.174,1.187-0.523C85.202,16.296,85.357,15.851,85.357,15.309z"/>
			<path fill="#FFFFFF" d="M93.26,10.452c-0.171-0.096-0.365-0.144-0.582-0.144c-0.613,0-0.92,0.386-0.92,1.159v0.845h1.283v0.743
				h-1.283v4.729h-0.876v-4.729h-0.93v-0.743h0.93v-0.887c0-0.556,0.164-1.005,0.492-1.347c0.327-0.342,0.744-0.513,1.25-0.513
				c0.268,0,0.479,0.032,0.636,0.096V10.452z"/>
			<path fill="#FFFFFF" d="M96.878,13.198c-0.156-0.118-0.379-0.176-0.668-0.176c-0.388,0-0.703,0.183-0.945,0.548
				s-0.363,0.84-0.363,1.424v2.79h-0.877v-5.472h0.877v1.127h0.021c0.121-0.378,0.308-0.676,0.561-0.895
				c0.253-0.219,0.543-0.329,0.871-0.329c0.228,0,0.402,0.025,0.523,0.075V13.198z"/>
			<path fill="#FFFFFF" d="M102.841,15.026c0,0.869-0.246,1.568-0.74,2.097c-0.493,0.529-1.155,0.794-1.984,0.794
				c-0.81,0-1.455-0.257-1.938-0.772c-0.482-0.515-0.724-1.192-0.724-2.033c0-0.905,0.247-1.62,0.742-2.146s1.178-0.788,2.047-0.788
				c0.812,0,1.448,0.254,1.907,0.761C102.611,13.447,102.841,14.143,102.841,15.026z M101.943,15.058
				c0-0.688-0.152-1.215-0.457-1.582c-0.305-0.367-0.74-0.55-1.307-0.55c-0.562,0-1.008,0.188-1.336,0.564
				c-0.327,0.375-0.491,0.906-0.491,1.589c0,0.656,0.164,1.168,0.494,1.537c0.329,0.369,0.773,0.553,1.333,0.553
				c0.57,0,1.007-0.182,1.31-0.545S101.943,15.738,101.943,15.058z"/>
			<path fill="#FFFFFF" d="M111.945,17.783h-0.876v-3.142c0-0.613-0.094-1.052-0.28-1.317c-0.188-0.265-0.502-0.398-0.943-0.398
				c-0.374,0-0.692,0.171-0.954,0.513c-0.262,0.342-0.393,0.75-0.393,1.224v3.121h-0.876v-3.249c0-1.072-0.415-1.608-1.245-1.608
				c-0.385,0-0.702,0.161-0.951,0.483c-0.25,0.323-0.374,0.74-0.374,1.253v3.121h-0.877v-5.472h0.877v0.865h0.021
				c0.388-0.666,0.952-0.999,1.693-0.999c0.356,0,0.677,0.1,0.962,0.299c0.285,0.199,0.482,0.479,0.593,0.839
				c0.406-0.759,1.012-1.138,1.817-1.138c1.204,0,1.806,0.745,1.806,2.233V17.783z"/>
			<path fill="#FFFFFF" d="M48.269,23.705l-2.164,7.663h-1.053l-1.577-5.605c-0.061-0.21-0.1-0.469-0.118-0.774h-0.021
				c-0.029,0.264-0.077,0.518-0.145,0.764l-1.587,5.616h-1.042l-2.239-7.663h0.983l1.63,5.878c0.067,0.261,0.112,0.517,0.134,0.77
				h0.021c0.018-0.217,0.071-0.474,0.161-0.77l1.699-5.878h0.866l1.619,5.921c0.061,0.221,0.103,0.458,0.128,0.711h0.021
				c0.018-0.186,0.066-0.43,0.144-0.732l1.566-5.899H48.269z"/>
			<path fill="#FFFFFF" d="M50.396,23.936c0,0.163-0.057,0.3-0.171,0.408c-0.114,0.108-0.25,0.163-0.406,0.163
				c-0.16,0-0.296-0.053-0.406-0.157c-0.11-0.105-0.166-0.243-0.166-0.414c0-0.153,0.054-0.286,0.163-0.398
				c0.108-0.112,0.245-0.168,0.409-0.168c0.164,0,0.301,0.055,0.412,0.165C50.341,23.645,50.396,23.778,50.396,23.936z
				 M50.246,31.368H49.37v-5.472h0.876V31.368z"/>
			<path fill="#FFFFFF" d="M56.46,31.368h-0.876v-3.121c0-1.157-0.424-1.736-1.272-1.736c-0.431,0-0.792,0.163-1.082,0.489
				c-0.29,0.325-0.436,0.741-0.436,1.247v3.121h-0.876v-5.472h0.876v0.908h0.021c0.41-0.694,1.008-1.042,1.795-1.042
				c0.602,0,1.061,0.196,1.376,0.588c0.315,0.392,0.473,0.947,0.473,1.667V31.368z"/>
			<path fill="#FFFFFF" d="M62.766,31.368h-0.876v-0.93h-0.021c-0.406,0.709-1.033,1.063-1.881,1.063
				c-0.691,0-1.242-0.249-1.651-0.746c-0.41-0.496-0.615-1.16-0.615-1.99c0-0.904,0.227-1.632,0.681-2.18
				c0.455-0.549,1.062-0.823,1.825-0.823c0.748,0,1.295,0.296,1.64,0.887h0.021v-3.382h0.876V31.368z M61.889,28.895v-0.808
				c0-0.452-0.15-0.828-0.452-1.127c-0.301-0.3-0.667-0.449-1.098-0.449c-0.527,0-0.946,0.195-1.255,0.585
				c-0.31,0.391-0.465,0.931-0.465,1.622c0,0.627,0.146,1.123,0.438,1.488s0.686,0.548,1.181,0.548c0.48,0,0.876-0.175,1.186-0.524
				C61.734,29.881,61.889,29.436,61.889,28.895z"/>
			<path fill="#FFFFFF" d="M69.471,28.61c0,0.87-0.247,1.568-0.74,2.098c-0.494,0.529-1.155,0.794-1.985,0.794
				c-0.809,0-1.455-0.258-1.937-0.772c-0.483-0.515-0.724-1.192-0.724-2.033c0-0.905,0.248-1.62,0.743-2.146
				s1.177-0.788,2.047-0.788c0.812,0,1.448,0.254,1.908,0.762C69.242,27.032,69.471,27.728,69.471,28.61z M68.574,28.643
				c0-0.688-0.152-1.215-0.457-1.581c-0.305-0.367-0.74-0.551-1.307-0.551c-0.563,0-1.008,0.188-1.336,0.563
				c-0.328,0.376-0.491,0.906-0.491,1.59c0,0.655,0.165,1.168,0.494,1.536c0.33,0.369,0.774,0.554,1.333,0.554
				c0.57,0,1.006-0.182,1.31-0.545C68.422,29.846,68.574,29.323,68.574,28.643z"/>
			<path fill="#FFFFFF" d="M77.651,25.896l-1.641,5.472h-0.908l-1.127-3.917c-0.04-0.136-0.068-0.303-0.085-0.502h-0.021
				c-0.011,0.124-0.048,0.288-0.112,0.491l-1.224,3.928h-0.876l-1.651-5.472h0.919l1.127,4.114c0.036,0.143,0.061,0.307,0.075,0.492
				h0.043C72.176,30.367,72.21,30.2,72.271,30l1.256-4.104h0.801l1.138,4.125c0.036,0.139,0.061,0.303,0.075,0.491h0.043
				c0.007-0.171,0.036-0.334,0.085-0.491l1.117-4.125H77.651z"/>
			<path fill="#FFFFFF" d="M81.691,29.904c0,0.474-0.182,0.858-0.547,1.154c-0.365,0.295-0.852,0.443-1.457,0.443
				c-0.516,0-0.969-0.11-1.356-0.331v-0.941c0.431,0.35,0.905,0.524,1.421,0.524c0.695,0,1.043-0.255,1.043-0.765
				c0-0.206-0.068-0.375-0.203-0.505c-0.137-0.13-0.443-0.306-0.926-0.526c-0.484-0.206-0.826-0.428-1.025-0.665
				s-0.299-0.552-0.299-0.943c0-0.452,0.182-0.83,0.545-1.133s0.824-0.454,1.385-0.454c0.43,0,0.82,0.086,1.17,0.257V26.9
				c-0.357-0.26-0.77-0.39-1.24-0.39c-0.289,0-0.521,0.071-0.697,0.214s-0.264,0.326-0.264,0.551c0,0.242,0.066,0.428,0.201,0.558
				c0.137,0.131,0.416,0.284,0.84,0.463c0.52,0.221,0.885,0.452,1.096,0.694C81.586,29.232,81.691,29.537,81.691,29.904z"/>
			<path fill="#FFFFFF" d="M90.327,25.992c0,0.741-0.256,1.339-0.768,1.793c-0.511,0.454-1.182,0.682-2.012,0.682h-1.01v2.901
				h-0.897v-7.663h2.105c0.819,0,1.454,0.2,1.904,0.602C90.102,24.707,90.327,25.27,90.327,25.992z M89.386,26.041
				c0-1.016-0.598-1.523-1.795-1.523h-1.053v3.142h0.94c0.616,0,1.088-0.14,1.416-0.419S89.386,26.561,89.386,26.041z"/>
			<path fill="#FFFFFF" d="M96.064,31.368h-0.876v-3.152c0-1.137-0.424-1.705-1.271-1.705c-0.438,0-0.801,0.167-1.088,0.5
				c-0.286,0.333-0.43,0.752-0.43,1.258v3.1h-0.877v-8.101h0.877v3.537h0.021c0.42-0.694,1.019-1.042,1.795-1.042
				c1.232,0,1.849,0.744,1.849,2.233V31.368z"/>
			<path fill="#FFFFFF" d="M102.694,28.61c0,0.87-0.246,1.568-0.74,2.098c-0.493,0.529-1.155,0.794-1.984,0.794
				c-0.81,0-1.455-0.258-1.938-0.772s-0.724-1.192-0.724-2.033c0-0.905,0.247-1.62,0.742-2.146s1.178-0.788,2.047-0.788
				c0.812,0,1.448,0.254,1.907,0.762C102.465,27.032,102.694,27.728,102.694,28.61z M101.797,28.643
				c0-0.688-0.152-1.215-0.457-1.581c-0.305-0.367-0.74-0.551-1.307-0.551c-0.562,0-1.008,0.188-1.336,0.563
				c-0.327,0.376-0.491,0.906-0.491,1.59c0,0.655,0.164,1.168,0.494,1.536c0.329,0.369,0.773,0.554,1.333,0.554
				c0.57,0,1.007-0.182,1.31-0.545S101.797,29.323,101.797,28.643z"/>
			<path fill="#FFFFFF" d="M108.57,31.368h-0.876v-3.121c0-1.157-0.424-1.736-1.271-1.736c-0.432,0-0.792,0.163-1.082,0.489
				c-0.291,0.325-0.436,0.741-0.436,1.247v3.121h-0.877v-5.472h0.877v0.908h0.021c0.409-0.694,1.008-1.042,1.795-1.042
				c0.603,0,1.061,0.196,1.376,0.588s0.473,0.947,0.473,1.667V31.368z"/>
			<path fill="#FFFFFF" d="M114.586,28.852h-3.863c0.014,0.616,0.177,1.087,0.488,1.413c0.312,0.326,0.744,0.489,1.296,0.489
				c0.62,0,1.185-0.2,1.694-0.599v0.817c-0.478,0.353-1.111,0.529-1.902,0.529c-0.78,0-1.39-0.252-1.827-0.756
				c-0.438-0.505-0.657-1.202-0.657-2.093c0-0.541,0.109-1.035,0.328-1.482s0.521-0.794,0.906-1.039
				c0.384-0.246,0.812-0.369,1.282-0.369c0.709,0,1.262,0.23,1.659,0.692c0.396,0.461,0.596,1.106,0.596,1.937V28.852z
				 M113.688,28.108c-0.008-0.506-0.13-0.898-0.366-1.178c-0.237-0.28-0.571-0.42-1.002-0.42c-0.406,0-0.754,0.146-1.042,0.438
				c-0.289,0.292-0.471,0.679-0.545,1.159H113.688z"/>
			<path fill="#FFFFFF" d="M122.446,29.434c0,0.645-0.228,1.151-0.684,1.518c-0.456,0.367-1.076,0.551-1.859,0.551
				c-0.285,0-0.607-0.048-0.965-0.142c-0.358-0.095-0.612-0.193-0.762-0.297V30c0.218,0.196,0.503,0.36,0.857,0.492
				s0.686,0.197,0.991,0.197c0.983,0,1.476-0.383,1.476-1.148c0-0.321-0.105-0.597-0.315-0.826
				c-0.211-0.229-0.642-0.531-1.293-0.905c-0.631-0.356-1.072-0.695-1.325-1.016c-0.254-0.32-0.38-0.711-0.38-1.17
				c0-0.605,0.227-1.099,0.679-1.478c0.452-0.38,1.037-0.569,1.753-0.569c0.688,0,1.189,0.091,1.507,0.272v1.005
				c-0.399-0.313-0.918-0.471-1.556-0.471c-0.424,0-0.77,0.106-1.039,0.318c-0.269,0.212-0.403,0.492-0.403,0.842
				c0,0.253,0.04,0.456,0.12,0.608c0.08,0.153,0.216,0.305,0.406,0.455c0.19,0.149,0.512,0.351,0.965,0.604
				c0.677,0.378,1.15,0.733,1.421,1.068S122.446,28.999,122.446,29.434z"/>
			<path fill="#FFFFFF" d="M126.141,31.314c-0.21,0.118-0.484,0.177-0.822,0.177c-0.955,0-1.433-0.538-1.433-1.614v-3.238h-0.94
				v-0.742h0.94v-1.336l0.877-0.283v1.619h1.378v0.742h-1.378v3.089c0,0.367,0.062,0.628,0.187,0.783
				c0.125,0.154,0.333,0.232,0.625,0.232c0.218,0,0.406-0.059,0.566-0.177V31.314z"/>
			<path fill="#FFFFFF" d="M132.191,28.61c0,0.87-0.246,1.568-0.74,2.098c-0.493,0.529-1.155,0.794-1.984,0.794
				c-0.81,0-1.455-0.258-1.938-0.772s-0.724-1.192-0.724-2.033c0-0.905,0.247-1.62,0.742-2.146s1.178-0.788,2.047-0.788
				c0.812,0,1.448,0.254,1.907,0.762C131.962,27.032,132.191,27.728,132.191,28.61z M131.294,28.643
				c0-0.688-0.152-1.215-0.457-1.581c-0.305-0.367-0.74-0.551-1.307-0.551c-0.562,0-1.008,0.188-1.336,0.563
				c-0.327,0.376-0.491,0.906-0.491,1.59c0,0.655,0.164,1.168,0.494,1.536c0.329,0.369,0.773,0.554,1.333,0.554
				c0.57,0,1.007-0.182,1.31-0.545S131.294,29.323,131.294,28.643z"/>
			<path fill="#FFFFFF" d="M136.379,26.783c-0.156-0.117-0.379-0.176-0.668-0.176c-0.388,0-0.703,0.183-0.945,0.547
				c-0.242,0.365-0.363,0.84-0.363,1.425v2.789h-0.877v-5.472h0.877v1.127h0.021c0.121-0.377,0.308-0.676,0.561-0.895
				c0.253-0.22,0.543-0.329,0.871-0.329c0.228,0,0.402,0.025,0.523,0.075V26.783z"/>
			<path fill="#FFFFFF" d="M141.723,28.852h-3.863c0.014,0.616,0.177,1.087,0.488,1.413c0.312,0.326,0.744,0.489,1.296,0.489
				c0.62,0,1.185-0.2,1.694-0.599v0.817c-0.478,0.353-1.111,0.529-1.902,0.529c-0.78,0-1.39-0.252-1.827-0.756
				c-0.438-0.505-0.657-1.202-0.657-2.093c0-0.541,0.109-1.035,0.328-1.482s0.521-0.794,0.906-1.039
				c0.384-0.246,0.812-0.369,1.282-0.369c0.709,0,1.262,0.23,1.659,0.692c0.396,0.461,0.596,1.106,0.596,1.937V28.852z
				 M140.825,28.108c-0.008-0.506-0.13-0.898-0.366-1.178c-0.237-0.28-0.571-0.42-1.002-0.42c-0.406,0-0.754,0.146-1.042,0.438
				c-0.289,0.292-0.471,0.679-0.545,1.159H140.825z"/>
		</g>
	</g>
</g>
<g>
</g>
<g>
</g>
<g>
</g>
<g>
</g>
<g>
</g>
<g>
</g>
<g>
</g>
<g>
</g>
<g>
</g>
<g>
</g>
<g>
</g>
</svg>
