<?xml version="1.0" encoding="utf-8"?>
<!-- Generator: Adobe Illustrator 17.0.0, SVG Export Plug-In . SVG Version: 6.00 Build 0)  -->
<!DOCTYPE svg PUBLIC "-//W3C//DTD SVG 1.1//EN" "http://www.w3.org/Graphics/SVG/1.1/DTD/svg11.dtd">
<svg version="1.1" id="Layer_1" xmlns="http://www.w3.org/2000/svg" xmlns:xlink="http://www.w3.org/1999/xlink" x="0px" y="0px"
	 width="117.386px" height="40px" viewBox="0 0 117.386 40" enable-background="new 0 0 117.386 40" xml:space="preserve">
<g>
	<path fill="#010101" d="M117.354,34.245c0,3.549-2.607,5.755-6.153,5.755L6.456,40c-3.548,0-6.424-2.878-6.424-6.427V6.426
		C0.032,2.877,2.908,0,6.456,0l104.745,0c3.546,0,6.153,2.877,6.153,6.426V34.245z"/>
</g>
<g>
	<g>
		<defs>
			<rect id="SVGID_1_" x="0" width="117.386" height="40"/>
		</defs>
		<clipPath id="SVGID_2_">
			<use xlink:href="#SVGID_1_"  overflow="visible"/>
		</clipPath>
	</g>
	<path fill="#FFFFFF" d="M36.521,32.217c0,2.268-1.839,4.107-4.107,4.107H8.179c-2.268,0-4.107-1.839-4.107-4.107V7.983
		c0-2.268,1.839-4.107,4.107-4.107h24.235c2.268,0,4.107,1.839,4.107,4.107V32.217"/>
	<g>
		<defs>
			<path id="SVGID_3_" d="M36.584,32.281c0,2.268-1.839,4.107-4.107,4.107H8.243c-2.268,0-4.107-1.839-4.107-4.107V14.459
				c0,0,6.908,1.204,16.224,1.136c8.747-0.064,16.224-1.136,16.224-1.136V32.281"/>
		</defs>
		<clipPath id="SVGID_4_">
			<use xlink:href="#SVGID_3_"  overflow="visible"/>
		</clipPath>
		
			<linearGradient id="SVGID_5_" gradientUnits="userSpaceOnUse" x1="-36.7091" y1="53.1773" x2="-36.0932" y2="53.1773" gradientTransform="matrix(0 35.6006 35.6006 0 -1872.7844 1321.3264)">
			<stop  offset="0" style="stop-color:#F99F3A"/>
			<stop  offset="1" style="stop-color:#C66A23"/>
		</linearGradient>
		<rect x="4.136" y="14.46" clip-path="url(#SVGID_4_)" fill="url(#SVGID_5_)" width="32.448" height="21.928"/>
	</g>
	<path d="M32.477,36.355H8.243c-2.282,0-4.139-1.856-4.139-4.138V7.983c0-2.282,1.856-4.139,4.139-4.139h24.235
		c2.282,0,4.138,1.856,4.138,4.139v24.235C36.615,34.5,34.76,36.355,32.477,36.355 M8.243,3.908c-2.247,0-4.075,1.828-4.075,4.075
		v24.235c0,2.247,1.828,4.075,4.075,4.075h24.235c2.247,0,4.075-1.828,4.075-4.075V7.983c0-2.247-1.828-4.075-4.075-4.075H8.243z"/>
	<path fill-rule="evenodd" clip-rule="evenodd" d="M23.114,12.395c-1.324,1.002-3.245,1.536-4.898,1.536
		c-2.318,0-4.404-0.878-5.983-2.341c-0.124-0.115-0.014-0.271,0.136-0.182c1.704,1.016,3.811,1.629,5.987,1.629
		c1.468,0,3.082-0.313,4.567-0.958C23.145,11.98,23.333,12.229,23.114,12.395"/>
	<path fill-rule="evenodd" clip-rule="evenodd" d="M23.665,11.75c-0.169-0.223-1.12-0.106-1.547-0.054
		c-0.129,0.016-0.149-0.1-0.033-0.184c0.758-0.546,2.001-0.388,2.145-0.206c0.145,0.185-0.038,1.462-0.749,2.071
		c-0.109,0.094-0.213,0.044-0.165-0.081C23.476,12.889,23.834,11.972,23.665,11.75"/>
	<path fill-rule="evenodd" clip-rule="evenodd" d="M22.085,7.655v-0.53c0-0.081,0.06-0.134,0.131-0.134h2.319
		c0.074,0,0.134,0.055,0.134,0.134v0.455c-0.001,0.076-0.063,0.176-0.174,0.334l-1.202,1.759c0.446-0.01,0.918,0.058,1.323,0.291
		c0.091,0.053,0.116,0.131,0.123,0.207v0.567c0,0.078-0.084,0.168-0.171,0.121c-0.713-0.383-1.661-0.425-2.45,0.005
		c-0.081,0.044-0.165-0.045-0.165-0.123v-0.538c0-0.086,0.002-0.233,0.086-0.365l1.392-2.047h-1.212
		C22.145,7.789,22.085,7.735,22.085,7.655"/>
	<path fill-rule="evenodd" clip-rule="evenodd" d="M13.689,10.97h-0.706c-0.067-0.005-0.121-0.057-0.126-0.123l0.001-3.714
		C12.857,7.059,12.918,7,12.994,7L13.651,7c0.068,0.004,0.124,0.057,0.128,0.125v0.485h0.014c0.171-0.469,0.493-0.688,0.928-0.688
		c0.442,0,0.718,0.219,0.915,0.688c0.171-0.469,0.56-0.688,0.975-0.688c0.296,0,0.619,0.125,0.817,0.407
		c0.224,0.313,0.178,0.766,0.178,1.164l-0.001,2.344c0,0.074-0.061,0.134-0.136,0.134h-0.705c-0.071-0.005-0.127-0.062-0.127-0.134
		V8.867c0-0.156,0.013-0.547-0.02-0.695c-0.053-0.25-0.211-0.32-0.415-0.32c-0.171,0-0.349,0.118-0.421,0.305
		c-0.073,0.187-0.066,0.5-0.066,0.711v1.969c0,0.074-0.061,0.134-0.136,0.134h-0.705c-0.071-0.005-0.127-0.062-0.127-0.134
		l-0.001-1.969c0-0.414,0.066-1.024-0.435-1.024c-0.507,0-0.487,0.594-0.487,1.024l-0.001,1.969
		C13.825,10.91,13.764,10.97,13.689,10.97"/>
	<path fill-rule="evenodd" clip-rule="evenodd" d="M26.602,6.921c1.047,0,1.614,0.922,1.614,2.094c0,1.133-0.626,2.032-1.614,2.032
		c-1.027,0-1.587-0.923-1.587-2.071C25.015,7.82,25.581,6.921,26.602,6.921 M26.609,7.68c-0.52,0-0.553,0.726-0.553,1.18
		s-0.007,1.422,0.546,1.422c0.547,0,0.573-0.781,0.573-1.258c0-0.312-0.014-0.687-0.106-0.985C26.991,7.781,26.833,7.68,26.609,7.68
		z"/>
	<path fill-rule="evenodd" clip-rule="evenodd" d="M29.574,10.97h-0.703c-0.071-0.005-0.127-0.062-0.127-0.134l-0.001-3.714
		C28.749,7.053,28.808,7,28.878,7L29.533,7c0.061,0.004,0.112,0.046,0.125,0.104v0.569h0.014c0.197-0.508,0.474-0.751,0.962-0.751
		c0.316,0,0.626,0.118,0.823,0.438c0.185,0.297,0.185,0.797,0.185,1.156v2.337c-0.008,0.066-0.066,0.117-0.136,0.117h-0.707
		c-0.065-0.004-0.118-0.054-0.126-0.117V8.836c0-0.407,0.046-1-0.441-1c-0.172,0-0.33,0.117-0.409,0.297
		c-0.099,0.227-0.111,0.453-0.111,0.703v1.999C29.709,10.91,29.649,10.97,29.574,10.97"/>
	<path fill-rule="evenodd" clip-rule="evenodd" d="M20.299,9.196c0,0.281,0.007,0.517-0.132,0.767
		c-0.112,0.203-0.29,0.328-0.488,0.328c-0.27,0-0.429-0.211-0.429-0.524c0-0.617,0.539-0.729,1.05-0.729V9.196 M21.011,10.96
		c-0.047,0.043-0.114,0.046-0.167,0.017c-0.234-0.2-0.276-0.292-0.404-0.482c-0.387,0.405-0.662,0.526-1.164,0.526
		c-0.594,0-1.056-0.376-1.056-1.128c0-0.588,0.31-0.986,0.752-1.182c0.383-0.172,0.918-0.204,1.327-0.251V8.366
		c0-0.172,0.014-0.376-0.086-0.525c-0.086-0.133-0.251-0.188-0.396-0.188c-0.269,0-0.508,0.142-0.567,0.434
		c-0.012,0.065-0.059,0.13-0.122,0.133l-0.684-0.076c-0.058-0.013-0.122-0.06-0.105-0.151c0.157-0.851,0.907-1.108,1.578-1.108
		c0.343,0,0.792,0.094,1.063,0.36c0.343,0.329,0.31,0.767,0.31,1.245v1.127c0,0.339,0.138,0.488,0.267,0.671
		c0.045,0.066,0.055,0.144-0.002,0.192c-0.144,0.124-0.4,0.352-0.541,0.48L21.011,10.96z"/>
	<path fill-rule="evenodd" clip-rule="evenodd" d="M11.114,9.196c0,0.281,0.006,0.517-0.132,0.767
		c-0.112,0.203-0.291,0.328-0.488,0.328c-0.27,0-0.429-0.211-0.429-0.524c0-0.617,0.539-0.729,1.05-0.729V9.196 M11.825,10.96
		c-0.047,0.043-0.114,0.046-0.166,0.017c-0.235-0.2-0.277-0.292-0.405-0.482c-0.387,0.405-0.662,0.526-1.164,0.526
		c-0.594,0-1.056-0.376-1.056-1.128c0-0.588,0.31-0.986,0.753-1.182c0.383-0.172,0.917-0.204,1.327-0.251V8.366
		c0-0.172,0.012-0.376-0.086-0.525c-0.086-0.133-0.251-0.188-0.396-0.188c-0.269,0-0.508,0.142-0.567,0.434
		c-0.012,0.065-0.059,0.13-0.122,0.133L9.258,8.145c-0.057-0.013-0.122-0.06-0.105-0.151c0.157-0.851,0.906-1.108,1.578-1.108
		c0.343,0,0.791,0.094,1.063,0.36c0.343,0.329,0.31,0.767,0.31,1.245v1.127c0,0.339,0.137,0.488,0.266,0.671
		c0.045,0.066,0.055,0.144-0.002,0.192c-0.144,0.124-0.4,0.352-0.541,0.48L11.825,10.96z"/>
	<path fill="#192B72" d="M16.95,24.758c0,3.168-2.568,5.736-5.736,5.736s-5.735-2.569-5.735-5.736c0-3.167,2.567-5.735,5.735-5.735
		S16.95,21.59,16.95,24.758"/>
	<path fill="#FFFFFF" d="M11.535,22.568h-1.376v5.099c0,0-0.061,0.1-0.182-0.064c-0.06-0.081-1.679-2.486-1.679-2.486
		s-0.264-0.262-0.648-0.161c-0.384,0.101-0.526,0.363-0.344,0.688c0.182,0.323,1.416,3.257,3.014,4.067
		c1.137,0.575,2.489,0.363,3.258,0c0.681-0.322,1.744-1.112,1.826-2.164c0.081-1.053-0.002-1.983-0.002-1.983h-0.716v1.274h-0.46
		v-1.861h-0.81v1.522h-0.482v-1.987h-0.911v1.886h-0.442L11.535,22.568"/>
	<rect x="7.731" y="22.568" fill="#FFFFFF" width="1.153" height="0.708"/>
	<rect x="12.88" y="22.568" fill="#FFFFFF" width="1.154" height="0.708"/>
	<rect x="10.24" y="20.018" fill="#FFFFFF" width="1.194" height="1.335"/>
	<polyline fill="#FFFFFF" points="9.208,22.001 9.633,21.576 8.846,20.767 8.371,21.192 9.208,22.001 	"/>
	<polyline fill="#FFFFFF" points="12.61,21.875 12.249,21.387 13.099,20.703 13.448,21.192 12.61,21.875 	"/>
	<path fill="#FFFFFF" d="M18.789,22.241c0.301-0.157,0.721-0.373,1.4-0.373c1.374,0,1.691,0.766,1.691,2.033v2.21
		c0,0.363-0.029,0.697-0.003,0.894h-0.962c-0.022-0.232,0.003-0.442,0.003-0.687h-0.017c-0.266,0.413-0.601,0.766-1.237,0.766
		c-0.687,0-1.322-0.54-1.322-1.483c0-1.375,0.979-1.719,2.328-1.719h0.214v-0.187c0-0.501-0.214-0.963-0.824-0.963
		c-0.533,0-1.005,0.295-1.211,0.491L18.789,22.241 M20.885,24.53H20.79c-0.91,0-1.452,0.216-1.452,0.953
		c0,0.462,0.267,0.776,0.679,0.776c0.636,0,0.867-0.54,0.867-1.444V24.53z"/>
	<path fill="#FFFFFF" d="M19.665,27.116c-0.673,0-1.354-0.52-1.354-1.515c0-1.552,1.26-1.751,2.359-1.751h0.183v-0.155
		c0-0.28-0.078-0.931-0.793-0.931c-0.54,0-1.001,0.304-1.189,0.482c-0.009,0.009-0.022,0.011-0.034,0.007
		c-0.012-0.004-0.019-0.015-0.02-0.028l-0.06-0.982c-0.001-0.012,0.006-0.024,0.017-0.03c0.287-0.15,0.721-0.376,1.415-0.376
		c1.43,0,1.723,0.825,1.723,2.065v2.21c0,0.136-0.004,0.264-0.008,0.389c-0.006,0.204-0.012,0.38,0.004,0.501
		c0.001,0.01-0.002,0.018-0.007,0.025c-0.006,0.007-0.015,0.011-0.024,0.011h-0.962c-0.017,0-0.03-0.013-0.032-0.029
		c-0.014-0.151-0.009-0.291-0.003-0.44c0.002-0.055,0.004-0.112,0.006-0.171C20.641,26.764,20.298,27.116,19.665,27.116
		 M20.67,23.914c-1.588,0-2.296,0.52-2.296,1.688c0,0.952,0.649,1.452,1.29,1.452c0.637,0,0.958-0.362,1.21-0.752
		c0.006-0.009,0.015-0.014,0.026-0.014h0.017c0.017,0,0.031,0.014,0.031,0.031c0,0.088-0.003,0.172-0.006,0.253
		c-0.005,0.137-0.01,0.266,0.001,0.403h0.897c-0.011-0.123-0.006-0.288-0.001-0.475c0.004-0.124,0.008-0.253,0.008-0.387v-2.21
		c0-1.202-0.282-2.002-1.66-2.002c-0.664,0-1.085,0.213-1.367,0.36l0.055,0.896c0.219-0.187,0.666-0.455,1.183-0.455
		c0.544,0,0.856,0.362,0.856,0.994v0.187c0,0.017-0.014,0.031-0.031,0.031H20.67z M20.017,26.291c-0.424,0-0.71-0.325-0.71-0.808
		c0-0.69,0.443-0.984,1.483-0.984h0.094c0.018,0,0.031,0.014,0.031,0.031v0.285C20.916,25.823,20.631,26.291,20.017,26.291z
		 M20.79,24.562c-0.995,0-1.42,0.275-1.42,0.921c0,0.452,0.254,0.745,0.647,0.745c0.57,0,0.836-0.448,0.836-1.412v-0.253H20.79z"/>
	<path fill="#FFFFFF" d="M22.885,22.811c0-0.363-0.002-0.641-0.002-0.855l0.932,0.002c0.009,0.158,0.004,0.178,0.004,0.521h0.025
		c0.172-0.432,0.553-0.61,1.24-0.61c1.099,0,1.618,1.198,1.618,2.603c0,1.65-0.639,2.486-1.592,2.486
		c-0.636,0-0.988-0.096-1.143-0.488H23.95v2.405h-1.065V22.811 M24.775,26.064c0.593,0,0.925-0.532,0.925-1.543
		c0-1.169-0.29-1.759-0.908-1.759c-0.628,0-0.842,0.712-0.842,1.665C23.95,25.411,24.19,26.064,24.775,26.064z"/>
	<path fill="#FFFFFF" d="M23.95,28.906h-1.065c-0.017,0-0.031-0.015-0.031-0.032v-6.063c0-0.205-0.001-0.384-0.002-0.538
		c-0.001-0.119-0.001-0.224-0.001-0.317c0-0.009,0.004-0.017,0.009-0.023c0.006-0.005,0.014-0.009,0.023-0.009l0.933,0.002
		c0.017,0,0.03,0.013,0.031,0.03c0.006,0.105,0.006,0.15,0.004,0.266c0,0.043-0.001,0.095-0.001,0.165
		c0.189-0.385,0.565-0.551,1.234-0.551c1.002,0,1.65,1.034,1.65,2.635c0,1.6-0.592,2.517-1.623,2.517
		c-0.567,0-0.942-0.07-1.128-0.413v2.298C23.982,28.891,23.968,28.906,23.95,28.906 M22.917,28.843h1.002v-2.373
		c0-0.018,0.014-0.032,0.031-0.032h0.017c0.013,0,0.025,0.009,0.03,0.02c0.136,0.346,0.427,0.469,1.113,0.469
		c0.991,0,1.56-0.894,1.56-2.455c0-1.186-0.415-2.572-1.586-2.572c-0.684,0-1.046,0.177-1.21,0.591
		c-0.005,0.012-0.017,0.02-0.03,0.02h-0.025c-0.018,0-0.032-0.015-0.032-0.032c0-0.117,0.001-0.196,0.001-0.257
		c0.001-0.103,0.001-0.149-0.003-0.232l-0.87-0.002c0,0.086,0.001,0.18,0.001,0.285c0.001,0.155,0.002,0.333,0.002,0.539V28.843z
		 M24.775,26.095c-0.561,0-0.856-0.577-0.856-1.668c0-1.126,0.294-1.697,0.873-1.697c0.632,0,0.939,0.586,0.939,1.791
		C25.732,25.536,25.392,26.095,24.775,26.095z M24.792,22.794c-0.538,0-0.81,0.549-0.81,1.634c0,0.732,0.137,1.605,0.793,1.605
		c0.576,0,0.893-0.536,0.893-1.511C25.668,23.359,25.382,22.794,24.792,22.794z"/>
	<path fill="#FFFFFF" d="M31.885,25.65c0.179,0.076,0.635,0.388,1.154,0.388c0.402,0,0.716-0.105,0.716-0.487
		c0-0.19-0.089-0.371-0.492-0.62l-0.646-0.413c-0.466-0.296-0.785-0.511-0.785-1.194c0-0.788,0.617-1.455,1.592-1.455
		c0.591,0,1.047,0.162,1.154,0.2l-0.063,0.915c-0.277-0.114-0.572-0.219-0.975-0.219c-0.447,0-0.635,0.182-0.635,0.477
		c0,0.267,0.135,0.371,0.456,0.59l0.765,0.366c0.602,0.352,0.765,0.843,0.765,1.286c0,0.907-0.652,1.513-1.654,1.513
		c-0.573,0-1.173-0.206-1.406-0.302L31.885,25.65"/>
	<path fill="#FFFFFF" d="M33.238,27.029c-0.644,0-1.294-0.253-1.418-0.304c-0.012-0.006-0.02-0.018-0.02-0.031l0.054-1.046
		c0.001-0.01,0.006-0.02,0.015-0.025c0.009-0.006,0.02-0.007,0.029-0.002c0.038,0.016,0.088,0.042,0.145,0.073
		c0.221,0.116,0.591,0.312,0.997,0.312c0.466,0,0.684-0.145,0.684-0.455c0-0.179-0.081-0.349-0.477-0.593l-0.647-0.413
		c-0.447-0.284-0.8-0.509-0.8-1.22c0-0.862,0.682-1.488,1.624-1.488c0.272,0,0.695,0.035,1.165,0.202
		c0.014,0.005,0.022,0.018,0.021,0.032l-0.063,0.916c-0.001,0.01-0.006,0.02-0.014,0.025c-0.009,0.006-0.02,0.006-0.029,0.002
		c-0.266-0.11-0.559-0.217-0.963-0.217c-0.406,0-0.603,0.145-0.603,0.445c0,0.253,0.128,0.35,0.442,0.564l0.761,0.363
		c0.52,0.305,0.783,0.747,0.783,1.315C34.923,26.408,34.246,27.029,33.238,27.029 M31.864,26.674
		c0.162,0.065,0.771,0.291,1.374,0.291c0.986,0,1.622-0.581,1.622-1.482c0-0.544-0.252-0.967-0.75-1.259l-0.762-0.364
		c-0.33-0.225-0.474-0.335-0.474-0.619c0-0.232,0.116-0.508,0.666-0.508c0.395,0,0.686,0.099,0.947,0.205l0.058-0.848
		c-0.453-0.157-0.858-0.19-1.121-0.19c-0.904,0-1.56,0.599-1.56,1.424c0,0.678,0.323,0.883,0.77,1.167l0.647,0.413
		c0.36,0.221,0.506,0.409,0.506,0.646c0,0.349-0.245,0.518-0.747,0.518c-0.421,0-0.8-0.2-1.026-0.319
		c-0.036-0.019-0.07-0.037-0.099-0.051L31.864,26.674z"/>
	<path fill="#FFFFFF" d="M27.461,22.811c0-0.363-0.003-0.641-0.003-0.855l0.933,0.002c0.009,0.158,0.003,0.178,0.003,0.521h0.026
		c0.172-0.432,0.553-0.61,1.239-0.61c1.099,0,1.618,1.198,1.618,2.603c0,1.65-0.639,2.486-1.592,2.486
		c-0.636,0-0.988-0.096-1.143-0.488h-0.017v2.405h-1.065V22.811 M29.35,26.064c0.593,0,0.925-0.532,0.925-1.543
		c0-1.169-0.289-1.759-0.908-1.759c-0.627,0-0.841,0.712-0.841,1.665C28.526,25.411,28.766,26.064,29.35,26.064z"/>
	<path fill="#FFFFFF" d="M28.526,28.906h-1.065c-0.018,0-0.032-0.015-0.032-0.032v-6.063c0-0.205-0.001-0.384-0.002-0.538
		c-0.001-0.119-0.001-0.224-0.001-0.317c0-0.009,0.003-0.017,0.009-0.023c0.006-0.005,0.014-0.009,0.022-0.009l0.933,0.002
		c0.017,0,0.031,0.013,0.031,0.03c0.006,0.105,0.006,0.15,0.004,0.266c0,0.043-0.001,0.095-0.001,0.165
		c0.189-0.385,0.564-0.551,1.233-0.551c1.002,0,1.65,1.034,1.65,2.635c0,1.6-0.592,2.517-1.624,2.517
		c-0.567,0-0.941-0.07-1.128-0.413v2.298C28.557,28.891,28.543,28.906,28.526,28.906 M27.493,28.843h1.002v-2.373
		c0-0.018,0.014-0.032,0.032-0.032h0.017c0.013,0,0.025,0.009,0.03,0.02c0.136,0.346,0.427,0.469,1.113,0.469
		c0.991,0,1.56-0.894,1.56-2.455c0-1.186-0.416-2.572-1.587-2.572c-0.683,0-1.045,0.177-1.21,0.591
		c-0.005,0.012-0.017,0.02-0.03,0.02h-0.026c-0.017,0-0.031-0.015-0.031-0.032c0-0.117,0.001-0.196,0.001-0.257
		c0.001-0.103,0.001-0.149-0.002-0.232l-0.87-0.002c0,0.086,0.001,0.18,0.001,0.285c0.001,0.155,0.002,0.333,0.002,0.539V28.843z
		 M29.35,26.095c-0.56,0-0.856-0.577-0.856-1.668c0-1.126,0.294-1.697,0.873-1.697c0.633,0,0.94,0.586,0.94,1.791
		C30.307,25.536,29.967,26.095,29.35,26.095z M29.367,22.794c-0.538,0-0.81,0.549-0.81,1.634c0,0.732,0.137,1.605,0.793,1.605
		c0.576,0,0.894-0.536,0.894-1.511C30.244,23.359,29.957,22.794,29.367,22.794z"/>
	<path fill-rule="evenodd" clip-rule="evenodd" fill="#F89820" d="M83.062,32.153c-3.637,2.684-8.91,4.111-13.45,4.111
		c-6.363,0-12.093-2.352-16.429-6.267c-0.34-0.307-0.036-0.727,0.372-0.49c4.679,2.723,10.464,4.362,16.439,4.362
		c4.031,0,8.462-0.836,12.539-2.565C83.148,31.043,83.663,31.709,83.062,32.153"/>
	<path fill-rule="evenodd" clip-rule="evenodd" fill="#F89820" d="M84.575,30.426c-0.466-0.596-3.075-0.283-4.248-0.142
		c-0.355,0.043-0.41-0.268-0.09-0.493c2.082-1.462,5.493-1.04,5.889-0.55c0.4,0.493-0.105,3.914-2.056,5.546
		c-0.299,0.251-0.585,0.117-0.452-0.215C84.058,33.476,85.04,31.021,84.575,30.426"/>
	<path fill-rule="evenodd" clip-rule="evenodd" fill="#FFFFFF" d="M80.411,19.462v-1.421c0.001-0.216,0.164-0.36,0.36-0.36
		l6.368-0.001c0.204,0,0.367,0.148,0.367,0.359v1.218c-0.001,0.204-0.174,0.472-0.48,0.894l-3.298,4.71
		c1.224-0.029,2.519,0.155,3.632,0.78c0.25,0.14,0.318,0.35,0.337,0.554v1.516c0,0.209-0.228,0.451-0.468,0.326
		c-1.96-1.027-4.561-1.14-6.729,0.011c-0.221,0.119-0.453-0.119-0.453-0.328v-1.442c0-0.23,0.004-0.625,0.237-0.976l3.822-5.483
		l-3.327-0.001C80.575,19.82,80.412,19.674,80.411,19.462"/>
	<path fill-rule="evenodd" clip-rule="evenodd" fill="#FFFFFF" d="M57.182,28.336h-1.937c-0.184-0.012-0.332-0.15-0.346-0.327
		l0.001-9.943c0-0.2,0.167-0.358,0.373-0.358l1.804-0.001c0.189,0.01,0.341,0.153,0.353,0.334v1.298h0.036
		c0.471-1.255,1.356-1.841,2.55-1.841c1.211,0,1.971,0.586,2.514,1.841c0.47-1.255,1.537-1.841,2.676-1.841
		c0.814,0,1.7,0.335,2.242,1.088c0.615,0.836,0.488,2.051,0.488,3.117l-0.001,6.275c0,0.199-0.168,0.358-0.373,0.358h-1.935
		c-0.195-0.012-0.349-0.167-0.349-0.358v-5.27c0-0.419,0.036-1.465-0.054-1.863c-0.145-0.67-0.578-0.857-1.139-0.857
		c-0.471,0-0.959,0.314-1.157,0.816c-0.199,0.503-0.181,1.338-0.181,1.905v5.27c0,0.199-0.167,0.358-0.373,0.358h-1.935
		c-0.194-0.012-0.348-0.167-0.348-0.358l-0.001-5.27c0-1.109,0.18-2.742-1.194-2.742c-1.393,0-1.338,1.59-1.338,2.742l-0.001,5.27
		C57.556,28.177,57.388,28.336,57.182,28.336"/>
	<path fill-rule="evenodd" clip-rule="evenodd" fill="#FFFFFF" d="M92.987,17.497c2.876,0,4.431,2.469,4.431,5.608
		c0,3.034-1.717,5.441-4.431,5.441c-2.821,0-4.358-2.47-4.358-5.545C88.63,19.903,90.184,17.497,92.987,17.497 M93.005,19.527
		c-1.428,0-1.519,1.946-1.519,3.16c0,1.213-0.018,3.807,1.501,3.807c1.501,0,1.574-2.092,1.574-3.368
		c0-0.837-0.036-1.841-0.289-2.636C94.054,19.799,93.62,19.527,93.005,19.527z"/>
	<path fill-rule="evenodd" clip-rule="evenodd" fill="#FFFFFF" d="M101.147,28.336h-1.93c-0.194-0.012-0.347-0.167-0.347-0.358
		l-0.003-9.946c0.017-0.182,0.177-0.325,0.372-0.325l1.797-0.001c0.169,0.009,0.309,0.124,0.344,0.278v1.521h0.036
		c0.542-1.36,1.302-2.009,2.64-2.009c0.868,0,1.718,0.314,2.26,1.172c0.507,0.796,0.507,2.134,0.507,3.096v6.256
		c-0.022,0.177-0.18,0.314-0.371,0.314h-1.942c-0.18-0.012-0.324-0.143-0.346-0.314v-5.398c0-1.088,0.128-2.679-1.211-2.679
		c-0.471,0-0.905,0.314-1.121,0.795c-0.271,0.606-0.308,1.213-0.308,1.884v5.353C101.521,28.177,101.353,28.336,101.147,28.336"/>
	<path fill-rule="evenodd" clip-rule="evenodd" fill="#FFFFFF" d="M75.335,23.587c0,0.755,0.018,1.383-0.363,2.055
		c-0.309,0.545-0.798,0.881-1.342,0.881c-0.743,0-1.178-0.567-1.178-1.406c0-1.65,1.48-1.95,2.882-1.95V23.587 M77.288,28.31
		c-0.129,0.115-0.314,0.123-0.458,0.046c-0.644-0.535-0.759-0.782-1.111-1.291c-1.064,1.083-1.817,1.409-3.194,1.409
		c-1.63,0-2.9-1.008-2.9-3.021c0-1.571,0.852-2.642,2.067-3.165c1.051-0.461,2.519-0.545,3.643-0.672v-0.251
		c0-0.461,0.035-1.006-0.236-1.405c-0.236-0.357-0.689-0.503-1.088-0.503c-0.739,0-1.395,0.378-1.557,1.164
		c-0.034,0.174-0.161,0.347-0.336,0.356l-1.878-0.203c-0.159-0.036-0.334-0.163-0.289-0.405c0.432-2.278,2.488-2.966,4.333-2.966
		c0.942,0,2.174,0.252,2.917,0.965c0.943,0.881,0.852,2.055,0.852,3.334v3.018c0,0.907,0.378,1.306,0.731,1.796
		c0.124,0.176,0.152,0.385-0.006,0.514c-0.395,0.331-1.099,0.942-1.486,1.287L77.288,28.31z"/>
	<path fill-rule="evenodd" clip-rule="evenodd" fill="#FFFFFF" d="M49.938,23.587c0,0.755,0.018,1.383-0.363,2.055
		c-0.307,0.545-0.797,0.881-1.341,0.881c-0.742,0-1.178-0.567-1.178-1.406c0-1.65,1.48-1.95,2.881-1.95V23.587 M51.891,28.31
		c-0.128,0.115-0.314,0.123-0.458,0.046c-0.644-0.535-0.759-0.782-1.111-1.291c-1.063,1.083-1.817,1.409-3.194,1.409
		c-1.632,0-2.899-1.008-2.899-3.021c0-1.571,0.851-2.642,2.065-3.165c1.051-0.461,2.519-0.545,3.643-0.672v-0.251
		c0-0.461,0.036-1.006-0.235-1.405c-0.236-0.357-0.689-0.503-1.088-0.503c-0.739,0-1.396,0.378-1.557,1.164
		c-0.034,0.174-0.161,0.347-0.337,0.356l-1.877-0.203c-0.159-0.036-0.335-0.163-0.289-0.405c0.431-2.278,2.488-2.966,4.332-2.966
		c0.942,0,2.174,0.252,2.918,0.965c0.942,0.881,0.851,2.055,0.851,3.334v3.018c0,0.907,0.378,1.306,0.732,1.796
		c0.124,0.176,0.151,0.385-0.007,0.514c-0.395,0.331-1.099,0.942-1.486,1.287L51.891,28.31z"/>
	<path fill="#FFFFFF" d="M46.468,7.199h0.864l2.297,5.877h-0.864l-0.642-1.77h-2.486l-0.658,1.77h-0.806L46.468,7.199
		 M45.884,10.648h1.993l-0.98-2.741H46.88L45.884,10.648z"/>
	<polyline fill="#FFFFFF" points="51.39,13.076 50.641,13.076 49.061,8.821 49.843,8.821 51.036,12.368 51.053,12.368 52.214,8.821 
		52.946,8.821 51.39,13.076 	"/>
	<path fill="#FFFFFF" d="M56.947,13.06c-0.124,0.074-0.28,0.115-0.503,0.115c-0.362,0-0.593-0.198-0.593-0.658
		c-0.387,0.453-0.905,0.658-1.498,0.658c-0.774,0-1.407-0.346-1.407-1.194c0-0.963,0.716-1.168,1.44-1.308
		c0.774-0.148,1.433-0.099,1.433-0.626c0-0.609-0.502-0.708-0.947-0.708c-0.593,0-1.029,0.181-1.062,0.806h-0.7
		c0.041-1.053,0.856-1.424,1.803-1.424c0.766,0,1.597,0.173,1.597,1.169v2.19c0,0.329,0,0.477,0.222,0.477
		c0.058,0,0.124-0.008,0.214-0.041V13.06 M55.81,10.879c-0.271,0.197-0.798,0.206-1.268,0.288c-0.461,0.083-0.856,0.247-0.856,0.766
		c0,0.461,0.395,0.626,0.823,0.626c0.922,0,1.3-0.577,1.3-0.963V10.879z"/>
	<path fill="#FFFFFF" d="M57.432,7.199h0.7v0.856h-0.7V7.199z M57.432,8.821h0.7v4.256h-0.7V8.821z"/>
	<rect x="59.094" y="7.199" fill="#FFFFFF" width="0.7" height="5.877"/>
	<path fill="#FFFFFF" d="M64.445,13.06c-0.124,0.074-0.28,0.115-0.502,0.115c-0.362,0-0.593-0.198-0.593-0.658
		c-0.387,0.453-0.906,0.658-1.499,0.658c-0.774,0-1.407-0.346-1.407-1.194c0-0.963,0.716-1.168,1.441-1.308
		c0.774-0.148,1.432-0.099,1.432-0.626c0-0.609-0.503-0.708-0.947-0.708c-0.593,0-1.029,0.181-1.062,0.806h-0.7
		c0.041-1.053,0.856-1.424,1.803-1.424c0.765,0,1.597,0.173,1.597,1.169v2.19c0,0.329,0,0.477,0.222,0.477
		c0.058,0,0.124-0.008,0.214-0.041V13.06 M63.308,10.879c-0.271,0.197-0.798,0.206-1.267,0.288
		c-0.461,0.083-0.856,0.247-0.856,0.766c0,0.461,0.395,0.626,0.823,0.626c0.922,0,1.3-0.577,1.3-0.963V10.879z"/>
	<path fill="#FFFFFF" d="M64.914,7.199h0.699v2.198h0.017c0.23-0.469,0.774-0.675,1.358-0.675c1.309,0,1.959,1.037,1.959,2.239
		c0,1.202-0.642,2.214-1.943,2.214c-0.436,0-1.061-0.164-1.374-0.666h-0.017v0.567h-0.699V7.199 M66.889,9.34
		c-0.939,0-1.301,0.806-1.301,1.605c0,0.839,0.379,1.613,1.342,1.613c0.955,0,1.276-0.815,1.276-1.646
		C68.206,10.113,67.794,9.34,66.889,9.34z"/>
	<rect x="69.482" y="7.199" fill="#FFFFFF" width="0.699" height="5.877"/>
	<path fill="#FFFFFF" d="M74.692,11.727c-0.19,0.939-0.865,1.449-1.82,1.449c-1.358,0-2-0.938-2.041-2.239
		c0-1.276,0.839-2.214,2-2.214c1.507,0,1.968,1.407,1.926,2.437h-3.186c-0.025,0.74,0.395,1.399,1.326,1.399
		c0.576,0,0.979-0.28,1.103-0.832H74.692 M74.017,10.541c-0.033-0.667-0.535-1.202-1.226-1.202c-0.733,0-1.17,0.551-1.219,1.202
		H74.017z"/>
	<path fill="#FFFFFF" d="M81.54,13.06c-0.123,0.074-0.28,0.115-0.502,0.115c-0.362,0-0.593-0.198-0.593-0.658
		c-0.387,0.453-0.905,0.658-1.498,0.658c-0.774,0-1.407-0.346-1.407-1.194c0-0.963,0.716-1.168,1.44-1.308
		c0.774-0.148,1.433-0.099,1.433-0.626c0-0.609-0.503-0.708-0.947-0.708c-0.593,0-1.029,0.181-1.063,0.806h-0.699
		c0.041-1.053,0.856-1.424,1.802-1.424c0.766,0,1.597,0.173,1.597,1.169v2.19c0,0.329,0,0.477,0.222,0.477
		c0.058,0,0.124-0.008,0.214-0.041V13.06 M80.404,10.879c-0.272,0.197-0.799,0.206-1.268,0.288
		c-0.461,0.083-0.856,0.247-0.856,0.766c0,0.461,0.395,0.626,0.824,0.626c0.921,0,1.3-0.577,1.3-0.963V10.879z"/>
	<path fill="#FFFFFF" d="M83.162,8.821h0.848v0.617h-0.848v2.642c0,0.321,0.09,0.379,0.527,0.379h0.321v0.617h-0.535
		c-0.724,0-1.013-0.148-1.013-0.929V9.438h-0.725V8.821h0.725V7.545h0.7V8.821"/>
</g>
</svg>
