<?xml version="1.0" encoding="utf-8"?>
<!DOCTYPE svg PUBLIC "-//W3C//DTD SVG 1.1//EN" "http://www.w3.org/Graphics/SVG/1.1/DTD/svg11.dtd">
<svg version="1.1" id="SemiBold" xmlns="http://www.w3.org/2000/svg" xmlns:xlink="http://www.w3.org/1999/xlink" x="0px" y="0px"
	 width="116.813px" height="40px" viewBox="0 0 116.813 40" enable-background="new 0 0 116.813 40" xml:space="preserve">
<g>
	<g>
		<path d="M116.813,34.245c0,3.549-2.607,5.755-6.153,5.755H6.424C2.876,40,0,37.122,0,33.573V6.426C0,2.877,2.876,0,6.424,0H110.66
			c3.546,0,6.153,2.877,6.153,6.426V34.245z"/>
	</g>
	<g>
		<g>
			<path fill="#FFFFFF" d="M79.83,28.712l-0.877,0.827c-0.202,0.111-0.404,0.241-0.605,0.333c-0.609,0.276-1.229,0.346-1.779,0.346
				c-0.586,0-1.504-0.038-2.441-0.715c-1.302-0.917-1.871-2.493-1.871-3.866c0-2.843,2.314-4.238,4.202-4.238
				c0.66,0,1.338,0.165,1.889,0.514c0.916,0.605,1.153,1.393,1.285,1.815l-4.311,1.742l-1.412,0.11
				c0.457,2.331,2.034,3.687,3.777,3.687c0.87,0,1.517-0.284,2.109-0.577C79.796,28.689,79.914,28.627,79.83,28.712z M77.229,24.075
				c0.35-0.127,0.532-0.237,0.532-0.493c0-0.732-0.829-1.578-1.818-1.578c-0.733,0-2.108,0.57-2.108,2.552
				c0,0.309,0.037,0.638,0.055,0.968L77.229,24.075z"/>
			<path fill="#FFFFFF" d="M70.816,28.57c0,0.713,0.127,0.824,0.73,0.879c0.314,0.037,0.627,0.054,0.937,0.09l-0.678,0.404h-3.232
				c0.424-0.55,0.497-0.604,0.497-0.971v-0.409L69.062,17.66h-1.427l1.373-0.662h2.623c-0.568,0.329-0.738,0.53-0.811,1.171
				L70.816,28.57z"/>
			<path fill="#FFFFFF" d="M65.804,22.299c0.421,0.346,1.3,1.08,1.3,2.474c0,1.358-0.766,1.998-1.538,2.604
				c-0.237,0.238-0.514,0.497-0.514,0.897c0,0.405,0.277,0.626,0.477,0.79l0.662,0.512c0.806,0.68,1.54,1.303,1.54,2.569
				c0,1.725-1.67,3.464-4.824,3.464c-2.657,0-3.942-1.265-3.942-2.622c0-0.661,0.328-1.596,1.413-2.236
				c1.137-0.695,2.677-0.788,3.502-0.842c-0.257-0.333-0.551-0.681-0.551-1.249c0-0.311,0.093-0.496,0.184-0.715
				c-0.201,0.019-0.403,0.039-0.586,0.039c-1.945,0-3.045-1.451-3.045-2.881c0-0.843,0.385-1.779,1.175-2.457
				c1.045-0.861,2.292-1.009,3.283-1.009h3.779l-1.175,0.663H65.804z M64.504,30.44c-0.15-0.02-0.24-0.02-0.422-0.02
				c-0.166,0-1.157,0.036-1.924,0.294c-0.406,0.149-1.579,0.587-1.579,1.89c0,1.3,1.267,2.237,3.227,2.237
				c1.76,0,2.695-0.844,2.695-1.98C66.501,31.925,65.896,31.432,64.504,30.44z M65.032,26.955c0.424-0.423,0.461-1.008,0.461-1.34
				c0-1.319-0.786-3.373-2.311-3.373c-0.475,0-0.991,0.239-1.283,0.608c-0.31,0.382-0.403,0.878-0.403,1.354
				c0,1.228,0.716,3.265,2.292,3.265C64.247,27.469,64.742,27.245,65.032,26.955z"/>
			<path fill="#FFFFFF" d="M54.435,30.18c-2.915,0-4.475-2.27-4.475-4.325c0-2.401,1.961-4.456,4.75-4.456
				c2.696,0,4.385,2.11,4.385,4.327C59.094,27.89,57.425,30.18,54.435,30.18z M56.728,28.696c0.444-0.587,0.551-1.319,0.551-2.034
				c0-1.615-0.77-4.695-3.043-4.695c-0.605,0-1.214,0.236-1.653,0.622c-0.716,0.642-0.844,1.448-0.844,2.239
				c0,1.812,0.895,4.8,3.118,4.8C55.573,29.629,56.305,29.282,56.728,28.696z"/>
			<path fill="#FFFFFF" d="M44.675,30.18c-2.916,0-4.473-2.27-4.473-4.325c0-2.401,1.961-4.456,4.749-4.456
				c2.694,0,4.381,2.11,4.381,4.327C49.333,27.89,47.666,30.18,44.675,30.18z M46.969,28.696c0.44-0.587,0.55-1.319,0.55-2.034
				c0-1.615-0.772-4.695-3.043-4.695c-0.607,0-1.209,0.236-1.65,0.622c-0.717,0.642-0.844,1.448-0.844,2.239
				c0,1.812,0.899,4.8,3.118,4.8C45.815,29.629,46.545,29.282,46.969,28.696z"/>
			<path fill="#FFFFFF" d="M39.037,29.544l-2.459,0.563c-0.996,0.157-1.89,0.296-2.838,0.296c-4.742,0-6.549-3.491-6.549-6.222
				c0-3.336,2.56-6.429,6.944-6.429c0.928,0,1.82,0.136,2.633,0.358c1.289,0.362,1.891,0.808,2.268,1.07l-1.428,1.356l-0.602,0.135
				l0.429-0.685c-0.582-0.568-1.65-1.616-3.679-1.616c-2.712,0-4.759,2.062-4.759,5.072c0,3.233,2.337,6.274,6.083,6.274
				c1.101,0,1.668-0.221,2.182-0.428v-2.771l-2.596,0.14l1.376-0.739h3.643l-0.445,0.429c-0.12,0.102-0.136,0.137-0.17,0.274
				c-0.018,0.157-0.035,0.654-0.035,0.829V29.544z"/>
		</g>
		<g>
			<path fill="#FFFFFF" d="M85.116,28.79v4.671h-0.928V21.576h0.928v1.353c0.604-0.875,1.708-1.568,2.991-1.568
				c2.3,0,3.85,1.745,3.85,4.507c0,2.744-1.55,4.525-3.85,4.525C86.896,30.393,85.811,29.769,85.116,28.79z M90.96,25.868
				c0-2.082-1.085-3.67-3.01-3.67c-1.195,0-2.338,0.939-2.834,1.758v3.805c0.497,0.82,1.639,1.794,2.834,1.794
				C89.874,29.555,90.96,27.953,90.96,25.868z"/>
			<path fill="#FFFFFF" d="M93.223,30.179V18.294h0.927v11.885H93.223z"/>
			<path fill="#FFFFFF" d="M104.559,32.692c0.198,0.088,0.537,0.143,0.751,0.143c0.567,0,0.962-0.232,1.317-1.052l0.677-1.533
				l-3.654-8.675h1.035l3.135,7.518l3.104-7.518h1.049l-4.457,10.495c-0.462,1.082-1.19,1.602-2.19,1.602
				c-0.3,0-0.695-0.054-0.927-0.125L104.559,32.692z"/>
			<path fill="#FFFFFF" d="M101.849,30.153c-0.062-0.298-0.109-0.561-0.143-0.781c-0.029-0.219-0.045-0.443-0.045-0.671
				c-0.318,0.467-0.769,0.856-1.344,1.162c-0.576,0.308-1.123,0.459-1.874,0.459c-0.904,0-1.605-0.222-2.106-0.673
				c-0.499-0.451-0.75-1.061-0.75-1.833c0-0.771,0.364-1.397,1.088-1.876c0.725-0.481,1.662-0.72,2.822-0.72h2.164v-1.069
				c0-0.616-0.21-1.1-0.629-1.451c-0.421-0.351-1.011-0.529-1.776-0.529c-0.699,0-1.267,0.162-1.699,0.479
				c-0.428,0.323-0.644,0.723-0.644,1.205h-0.949l-0.02-0.046c-0.035-0.65,0.263-1.22,0.895-1.712
				c0.629-0.492,1.454-0.739,2.468-0.739c1.011,0,1.829,0.244,2.446,0.729c0.616,0.481,0.926,1.176,0.926,2.085v4.244
				c0,0.305,0.014,0.599,0.053,0.886c0.039,0.288,0.101,0.574,0.185,0.852H101.849z M98.557,29.478c0.788,0,1.354-0.176,1.933-0.524
				c0.575-0.347,0.966-0.798,1.171-1.345v-1.652h-2.174c-0.831,0-1.518,0.184-2.059,0.555c-0.542,0.369-0.817,0.817-0.817,1.337
				c0,0.49,0.174,0.883,0.52,1.18C97.48,29.328,97.954,29.478,98.557,29.478z"/>
		</g>
	</g>
	<g>
		<polygon fill="none" points="15.079,25.383 18.055,22.407 18.054,22.407 15.079,25.383 5.582,15.887 5.581,15.887 15.079,25.385
			5.566,34.898 5.566,34.898 15.079,25.385 18.068,28.374 18.07,28.374 		"/>

			<linearGradient id="SVGID_1_" gradientUnits="userSpaceOnUse" x1="488.2332" y1="-487.9493" x2="475.6929" y2="-495.7975" gradientTransform="matrix(0.7071 0.7071 -0.7071 0.7071 -677.1815 24.4185)">
			<stop  offset="0" style="stop-color:#D6FFA1"/>
			<stop  offset="0.3264" style="stop-color:#93E2A7"/>
			<stop  offset="1" style="stop-color:#00A3B5"/>
		</linearGradient>
		<path fill="url(#SVGID_1_)" d="M18.054,22.407L6.459,16.032c-0.328-0.18-0.632-0.222-0.878-0.145l9.498,9.497L18.054,22.407z"/>

			<linearGradient id="SVGID_2_" gradientUnits="userSpaceOnUse" x1="480.942" y1="-494.6536" x2="497.201" y2="-490.4033" gradientTransform="matrix(0.7071 0.7071 -0.7071 0.7071 -677.1815 24.4185)">
			<stop  offset="0" style="stop-color:#FF177B"/>
			<stop  offset="0.6721" style="stop-color:#FFA976"/>
			<stop  offset="1" style="stop-color:#FFEC73"/>
		</linearGradient>
		<path fill="url(#SVGID_2_)" d="M18.07,28.374l3.958-2.176c0.803-0.443,0.803-1.164,0-1.605l-3.973-2.185l-2.976,2.976
			L18.07,28.374z"/>

			<linearGradient id="SVGID_3_" gradientUnits="userSpaceOnUse" x1="490.0187" y1="-481.9962" x2="472.3878" y2="-492.3692" gradientTransform="matrix(0.7071 0.7071 -0.7071 0.7071 -677.1815 24.4185)">
			<stop  offset="0" style="stop-color:#63FFD4"/>
			<stop  offset="0.4854" style="stop-color:#32A0BA"/>
			<stop  offset="0.8349" style="stop-color:#1262A9"/>
			<stop  offset="1" style="stop-color:#064AA2"/>
		</linearGradient>
		<path fill="url(#SVGID_3_)" d="M5.581,15.887C5.228,15.997,5,16.354,5,16.894l0.002,17.001c0,0.534,0.221,0.886,0.564,1.003
			l9.513-9.513L5.581,15.887z"/>

			<linearGradient id="SVGID_4_" gradientUnits="userSpaceOnUse" x1="496.4197" y1="-490.2321" x2="485.564" y2="-475.9303" gradientTransform="matrix(0.7071 0.7071 -0.7071 0.7071 -677.1815 24.4185)">
			<stop  offset="0" style="stop-color:#FF4521"/>
			<stop  offset="0.3411" style="stop-color:#D43E65"/>
			<stop  offset="0.7935" style="stop-color:#9F36B9"/>
			<stop  offset="1" style="stop-color:#8A33DB"/>
		</linearGradient>
		<path fill="url(#SVGID_4_)" d="M5.566,34.898c0.247,0.084,0.556,0.045,0.893-0.14l11.609-6.384l-2.989-2.989L5.566,34.898z"/>
	</g>
	<g>
		<g>
			<path fill="#FFFFFF" d="M27.169,8.544c0-1.827,1.357-3.001,3.045-3.001c1.131,0,1.87,0.539,2.331,1.2l-0.826,0.479
				c-0.313-0.435-0.861-0.774-1.505-0.774c-1.148,0-2.001,0.87-2.001,2.096c0,1.209,0.853,2.096,2.001,2.096
				c0.592,0,1.113-0.27,1.374-0.522V9.222h-1.74V8.327h2.748v2.166c-0.565,0.635-1.383,1.061-2.383,1.061
				C28.526,11.554,27.169,10.362,27.169,8.544z"/>
			<path fill="#FFFFFF" d="M33.856,11.441V5.639h3.975v0.896h-2.958v1.496h2.897v0.896h-2.897v1.618h2.958v0.896H33.856z"/>
			<path fill="#FFFFFF" d="M40.647,11.441V6.535H38.89V5.639h4.532v0.896h-1.757v4.906H40.647z"/>
			<path fill="#FFFFFF" d="M46.959,11.441V5.639h1.017v5.802H46.959z"/>
			<path fill="#FFFFFF" d="M50.811,11.441V6.535h-1.757V5.639h4.532v0.896h-1.757v4.906H50.811z"/>
			<path fill="#FFFFFF" d="M56.87,8.544c0-1.731,1.226-3.001,2.967-3.001c1.731,0,2.966,1.27,2.966,3.001
				c0,1.731-1.235,3.001-2.966,3.001C58.097,11.545,56.87,10.275,56.87,8.544z M61.759,8.544c0-1.2-0.757-2.096-1.922-2.096
				c-1.174,0-1.923,0.896-1.923,2.096c0,1.191,0.748,2.096,1.923,2.096C61.002,10.64,61.759,9.735,61.759,8.544z"/>
			<path fill="#FFFFFF" d="M68.036,11.441l-3.027-4.149v4.149h-1.017V5.639h1.044l2.966,4.019V5.639h1.018v5.802H68.036z"/>
		</g>
	</g>
</g>
</svg>
