<?xml version="1.0" encoding="utf-8"?>
<!DOCTYPE svg PUBLIC "-//W3C//DTD SVG 1.1//EN" "http://www.w3.org/Graphics/SVG/1.1/DTD/svg11.dtd">
<svg version="1.1" id="Layer_1" xmlns="http://www.w3.org/2000/svg" xmlns:xlink="http://www.w3.org/1999/xlink" x="0px" y="0px"
	 width="113.628px" height="40px" viewBox="0.186 0 113.628 40" enable-background="new 0.186 0 113.628 40" xml:space="preserve">
<g>
	<path d="M113.814,34.245c0,3.549-2.607,5.755-6.153,5.755L6.61,40c-3.548,0-6.424-2.878-6.424-6.427V6.426
		C0.186,2.877,3.062,0,6.61,0l101.051,0c3.546,0,6.153,2.877,6.153,6.426V34.245z"/>
</g>
<g>
	<path d="M36.112,19.968c0,8.868-7.189,16.058-16.059,16.058c-8.874,0-16.063-7.19-16.063-16.058c0-8.87,7.189-16.06,16.063-16.06
		C28.923,3.908,36.112,11.098,36.112,19.968z"/>

		<linearGradient id="SVGID_1_" gradientUnits="userSpaceOnUse" x1="358.171" y1="-252.4744" x2="358.171" y2="-282.7363" gradientTransform="matrix(1 0 0 -1 -338 -245)">
		<stop  offset="0" style="stop-color:#808080"/>
		<stop  offset="0.1452" style="stop-color:#5F5F5F"/>
		<stop  offset="0.4629" style="stop-color:#0D0D0D"/>
		<stop  offset="0.5104" style="stop-color:#000000"/>
	</linearGradient>
	<path fill="url(#SVGID_1_)" d="M20.174,5.297c8.121,0,14.706,6.591,14.706,14.722c0,8.13-6.585,14.72-14.706,14.72
		c-8.127,0-14.712-6.59-14.712-14.72C5.462,11.887,12.046,5.297,20.174,5.297z"/>
	<defs>
		<filter id="Adobe_OpacityMaskFilter" filterUnits="userSpaceOnUse" x="5.481" y="5.314" width="29.378" height="29.406">
			<feColorMatrix  type="matrix" values="1 0 0 0 0  0 1 0 0 0  0 0 1 0 0  0 0 0 1 0"/>
		</filter>
	</defs>
	<mask maskUnits="userSpaceOnUse" x="5.481" y="5.314" width="29.378" height="29.406" id="SVGID_2_">
		<g filter="url(#Adobe_OpacityMaskFilter)">

				<linearGradient id="SVGID_3_" gradientUnits="userSpaceOnUse" x1="358.17" y1="-269.0847" x2="358.17" y2="-273.8386" gradientTransform="matrix(1 0 0 -1 -338 -245)">
				<stop  offset="0" style="stop-color:#FFFFFF"/>
				<stop  offset="0.0111" style="stop-color:#F9F9F9"/>
				<stop  offset="0.1293" style="stop-color:#C0C0C0"/>
				<stop  offset="0.2507" style="stop-color:#8C8C8C"/>
				<stop  offset="0.3726" style="stop-color:#616161"/>
				<stop  offset="0.495" style="stop-color:#3E3E3E"/>
				<stop  offset="0.6183" style="stop-color:#232323"/>
				<stop  offset="0.7427" style="stop-color:#0F0F0F"/>
				<stop  offset="0.8689" style="stop-color:#040404"/>
				<stop  offset="1" style="stop-color:#000000"/>
			</linearGradient>
			<path fill="url(#SVGID_3_)" d="M20.174,5.314c-8.117,0-14.693,6.584-14.693,14.704S12.057,34.72,20.174,34.72
				c8.111,0,14.685-6.581,14.685-14.702C34.859,11.898,28.284,5.314,20.174,5.314z M20.174,34.346
				c-7.911,0-14.319-6.416-14.319-14.328c0-7.915,6.408-14.329,14.319-14.329c7.904,0,14.314,6.414,14.314,14.329
				C34.488,27.93,28.078,34.346,20.174,34.346z"/>
		</g>
	</mask>
	<path mask="url(#SVGID_2_)" d="M20.174,5.314c-8.117,0-14.693,6.584-14.693,14.704S12.057,34.72,20.174,34.72
		c8.111,0,14.685-6.581,14.685-14.702C34.859,11.898,28.284,5.314,20.174,5.314z M20.174,34.346
		c-7.911,0-14.319-6.416-14.319-14.328c0-7.915,6.408-14.329,14.319-14.329c7.904,0,14.314,6.414,14.314,14.329
		C34.488,27.93,28.078,34.346,20.174,34.346z"/>

		<linearGradient id="SVGID_4_" gradientUnits="userSpaceOnUse" x1="358.172" y1="-250.097" x2="358.172" y2="-264.5151" gradientTransform="matrix(1 0 0 -1 -338 -245)">
		<stop  offset="0" style="stop-color:#A6A6A6"/>
		<stop  offset="1" style="stop-color:#000000"/>
	</linearGradient>
	<path fill="url(#SVGID_4_)" d="M20.174,5.314c7.703,0,14.02,5.938,14.636,13.489l0.226,0.107
		C34.47,11.186,28.031,5.097,20.174,5.097c-7.846,0-14.274,6.063-14.866,13.761l0.23-0.126C6.187,11.214,12.49,5.314,20.174,5.314z"
		/>

		<linearGradient id="SVGID_5_" gradientUnits="userSpaceOnUse" x1="358.17" y1="-280.3273" x2="358.17" y2="-270.2824" gradientTransform="matrix(1 0 0 -1 -338 -245)">
		<stop  offset="0" style="stop-color:#FFFFFF"/>
		<stop  offset="1" style="stop-color:#B2B2B2"/>
	</linearGradient>
	<path fill="url(#SVGID_5_)" d="M34.809,18.803c0.033,0.4,0.049,0.805,0.049,1.216c0,8.12-6.575,14.702-14.685,14.702
		c-8.117,0-14.693-6.581-14.693-14.702c0-0.434,0.021-0.862,0.058-1.286l-0.23,0.126c-0.029,0.384-0.044,0.77-0.044,1.16
		c0,8.24,6.673,14.919,14.909,14.919c8.231,0,14.903-6.679,14.903-14.919c0-0.373-0.014-0.743-0.041-1.109L34.809,18.803z"/>

		<linearGradient id="SVGID_6_" gradientUnits="userSpaceOnUse" x1="358.169" y1="-261.1854" x2="358.169" y2="-239.6369" gradientTransform="matrix(1 0 0 -1 -338 -245)">
		<stop  offset="0" style="stop-color:#D9D9D9"/>
		<stop  offset="0.5" style="stop-color:#F2F2F2"/>
		<stop  offset="1" style="stop-color:#D9D9D9"/>
	</linearGradient>
	<path fill="url(#SVGID_6_)" d="M5.264,20.018c0-8.241,6.673-14.921,14.909-14.921c8.231,0,14.903,6.68,14.903,14.921
		c0,0.765-0.057,1.517-0.17,2.252l1.718-1.115c0.025-0.376,0.04-0.755,0.04-1.137c0-9.119-7.385-16.51-16.493-16.51
		c-9.114,0-16.497,7.391-16.497,16.51c0,0.388,0.015,0.775,0.041,1.158l1.722,1.133C5.324,21.562,5.264,20.797,5.264,20.018z"/>

		<linearGradient id="SVGID_7_" gradientUnits="userSpaceOnUse" x1="358.1705" y1="-281.693" x2="358.1705" y2="-271.354" gradientTransform="matrix(1 0 0 -1 -338 -245)">
		<stop  offset="0" style="stop-color:#A6A6A6"/>
		<stop  offset="1" style="stop-color:#191919"/>
	</linearGradient>
	<path fill="url(#SVGID_7_)" d="M34.907,22.271c-1.084,7.172-7.268,12.667-14.734,12.667c-7.458,0-13.634-5.477-14.735-12.629
		l-1.722-1.133c0.594,8.577,7.733,15.352,16.457,15.352c8.725,0,15.869-6.785,16.452-15.372L34.907,22.271z"/>
	<defs>
		<filter id="Adobe_OpacityMaskFilter_1_" filterUnits="userSpaceOnUse" x="3.716" y="21.151" width="32.91" height="15.376">
			<feColorMatrix  type="matrix" values="1 0 0 0 0  0 1 0 0 0  0 0 1 0 0  0 0 0 1 0"/>
		</filter>
	</defs>
	<mask maskUnits="userSpaceOnUse" x="3.716" y="21.151" width="32.91" height="15.376" id="SVGID_8_">
		<g filter="url(#Adobe_OpacityMaskFilter_1_)">

				<linearGradient id="SVGID_9_" gradientUnits="userSpaceOnUse" x1="357.9417" y1="-270.3307" x2="344.0251" y2="-262.6043" gradientTransform="matrix(1 0 0 -1 -338 -245)">
				<stop  offset="0" style="stop-color:#929497"/>
				<stop  offset="1.962748e-04" style="stop-color:#929497"/>
				<stop  offset="0.0298" style="stop-color:#6A6A6C"/>
				<stop  offset="0.0586" style="stop-color:#4B494B"/>
				<stop  offset="0.0859" style="stop-color:#353233"/>
				<stop  offset="0.1113" style="stop-color:#282425"/>
				<stop  offset="0.1328" style="stop-color:#231F20"/>
			</linearGradient>
			<path fill="url(#SVGID_9_)" d="M3.716,21.177c0.594,8.578,7.733,15.35,16.457,15.35c8.726,0,15.871-6.785,16.453-15.376
				l-0.136,0.092c-0.628,8.461-7.707,15.153-16.317,15.153c-8.615,0-15.693-6.671-16.321-15.133L3.716,21.177z"/>
		</g>
	</mask>

		<linearGradient id="SVGID_10_" gradientUnits="userSpaceOnUse" x1="341.716" y1="-273.839" x2="374.626" y2="-273.839" gradientTransform="matrix(1 0 0 -1 -338 -245)">
		<stop  offset="0" style="stop-color:#FFFFFF"/>
		<stop  offset="0.1507" style="stop-color:#E4E5E6"/>
		<stop  offset="0.3227" style="stop-color:#CCCECF"/>
		<stop  offset="0.4828" style="stop-color:#BEC0C2"/>
		<stop  offset="0.6183" style="stop-color:#B9BBBD"/>
		<stop  offset="0.8382" style="stop-color:#58595B"/>
		<stop  offset="1" style="stop-color:#58595B"/>
	</linearGradient>
	<path mask="url(#SVGID_8_)" fill="url(#SVGID_10_)" d="M3.716,21.177c0.594,8.578,7.733,15.35,16.457,15.35
		c8.726,0,15.871-6.785,16.453-15.376l-0.136,0.092c-0.628,8.461-7.707,15.153-16.317,15.153c-8.615,0-15.693-6.671-16.321-15.133
		L3.716,21.177z"/>

		<linearGradient id="SVGID_11_" gradientUnits="userSpaceOnUse" x1="341.675" y1="-257.3855" x2="374.665" y2="-257.3855" gradientTransform="matrix(1 0 0 -1 -338 -245)">
		<stop  offset="0" style="stop-color:#C8CACB"/>
		<stop  offset="0.0582" style="stop-color:#DADBDC"/>
		<stop  offset="0.1389" style="stop-color:#EBEBEC"/>
		<stop  offset="0.2394" style="stop-color:#F6F7F7"/>
		<stop  offset="0.3804" style="stop-color:#FDFDFD"/>
		<stop  offset="0.7718" style="stop-color:#FFFFFF"/>
		<stop  offset="1" style="stop-color:#D9D9D9"/>
	</linearGradient>
	<path fill="url(#SVGID_11_)" d="M3.851,21.263c-0.03-0.405-0.045-0.833-0.045-1.245c0-9.031,7.341-16.38,16.367-16.38
		c9.021,0,16.362,7.349,16.362,16.38c0,0.412-0.014,0.82-0.045,1.226l0.136-0.092c0.025-0.375,0.039-0.753,0.039-1.134
		c0-9.118-7.385-16.51-16.493-16.51c-9.114,0-16.497,7.392-16.497,16.51c0,0.389,0.014,0.775,0.04,1.159L3.851,21.263z"/>
	<defs>
		<filter id="Adobe_OpacityMaskFilter_2_" filterUnits="userSpaceOnUse" x="5.462" y="5.277" width="29.418" height="29.443">
			<feColorMatrix  type="matrix" values="1 0 0 0 0  0 1 0 0 0  0 0 1 0 0  0 0 0 1 0"/>
		</filter>
	</defs>
	<mask maskUnits="userSpaceOnUse" x="5.462" y="5.277" width="29.418" height="29.443" id="SVGID_12_">
		<g filter="url(#Adobe_OpacityMaskFilter_2_)">

				<linearGradient id="SVGID_13_" gradientUnits="userSpaceOnUse" x1="358.171" y1="-269.1919" x2="358.171" y2="-276.8666" gradientTransform="matrix(1 0 0 -1 -338 -245)">
				<stop  offset="0" style="stop-color:#FFFFFF"/>
				<stop  offset="0.1877" style="stop-color:#D4D4D4"/>
				<stop  offset="0.6076" style="stop-color:#696969"/>
				<stop  offset="1" style="stop-color:#000000"/>
			</linearGradient>
			<path fill="url(#SVGID_13_)" d="M20.174,34.72c8.121,0,14.706-6.591,14.706-14.722c0-8.132-6.585-14.721-14.706-14.721
				c-8.127,0-14.712,6.589-14.712,14.721C5.462,28.129,12.046,34.72,20.174,34.72z"/>
		</g>
	</mask>

		<radialGradient id="SVGID_14_" cx="357.5687" cy="-284.2589" r="12.7427" gradientTransform="matrix(1 0 0 -1 -338 -245)" gradientUnits="userSpaceOnUse">
		<stop  offset="0" style="stop-color:#808080"/>
		<stop  offset="0.3582" style="stop-color:#555555"/>
		<stop  offset="1" style="stop-color:#000000"/>
	</radialGradient>
	<path opacity="0.5" mask="url(#SVGID_12_)" fill="url(#SVGID_14_)" enable-background="new    " d="M20.174,34.72
		c8.121,0,14.706-6.591,14.706-14.722c0-8.132-6.585-14.721-14.706-14.721c-8.127,0-14.712,6.589-14.712,14.721
		C5.462,28.129,12.046,34.72,20.174,34.72z"/>

		<radialGradient id="SVGID_15_" cx="352.7572" cy="-258.5341" r="20.7155" gradientTransform="matrix(1 0 0 -1 -338 -245)" gradientUnits="userSpaceOnUse">
		<stop  offset="0" style="stop-color:#FFFFFF"/>
		<stop  offset="1" style="stop-color:#D1D2D2"/>
	</radialGradient>
	<path fill="url(#SVGID_15_)" d="M13.97,16.473c-1.364,0-2.829,0-2.829,0l0.771-3.57c0,0,1.99,0,2.714,0
		c1.762,0,2.184,0.867,2.184,1.552C16.809,15.426,16.178,16.473,13.97,16.473z M21.283,16.473c-1.361,0-2.83,0-2.83,0l0.771-3.57
		c0,0,1.995,0,2.719,0c1.762,0,2.179,0.867,2.179,1.552C24.123,15.426,23.494,16.473,21.283,16.473z M12.988,21.845
		c-1.362,0-2.828,0-2.828,0l0.77-3.572c0,0,1.991,0,2.715,0c1.762,0,2.181,0.869,2.181,1.555
		C15.827,20.797,15.199,21.845,12.988,21.845z M20.307,21.845c-1.369,0-2.835,0-2.835,0l0.772-3.572c0,0,1.994,0,2.719,0
		c1.759,0,2.181,0.869,2.181,1.555C23.145,20.797,22.515,21.845,20.307,21.845z M27.954,19.667c-1.36,0-2.828,0-2.828,0l0.772-3.572
		c0,0,1.99,0,2.716,0c1.761,0,2.179,0.869,2.179,1.554C30.792,18.62,30.164,19.667,27.954,19.667z M26.899,25.26
		c-1.362,0-2.828,0-2.828,0l0.772-3.569c0,0,1.989,0,2.715,0c1.762,0,2.18,0.866,2.18,1.551
		C29.739,24.212,29.111,25.26,26.899,25.26z M19.251,27.437c-1.363,0-2.829,0-2.829,0l0.772-3.572c0,0,1.991,0,2.717,0
		c1.763,0,2.18,0.869,2.18,1.556C22.092,26.391,21.465,27.437,19.251,27.437z"/>
	<g>
		<path fill="#FFFFFF" d="M42.231,21.658v-9.736h2.753c1.32,0,2.28,0.201,2.881,0.603c0.601,0.402,0.902,1.024,0.902,1.864
			c0,1.013-0.484,1.709-1.451,2.088v0.027c0.352,0.127,0.646,0.276,0.881,0.447c0.235,0.172,0.422,0.362,0.563,0.57
			c0.14,0.208,0.239,0.434,0.298,0.678c0.059,0.244,0.088,0.497,0.088,0.759c0,0.552-0.104,1.001-0.312,1.349
			c-0.208,0.348-0.488,0.622-0.841,0.82c-0.353,0.199-0.759,0.337-1.22,0.414c-0.461,0.077-0.94,0.115-1.437,0.115h-3.105V21.658z
			 M45.051,16.099c0.235,0,0.495-0.014,0.78-0.041s0.549-0.095,0.793-0.203c0.244-0.109,0.447-0.269,0.61-0.481
			c0.163-0.212,0.244-0.504,0.244-0.875c0-0.344-0.081-0.612-0.244-0.807c-0.163-0.194-0.371-0.341-0.624-0.441
			c-0.253-0.099-0.533-0.16-0.841-0.183c-0.307-0.022-0.601-0.034-0.881-0.034h-1.397v3.064h1.56V16.099z M45.281,20.56
			c0.904,0,1.559-0.133,1.966-0.4s0.61-0.689,0.61-1.268c0-0.615-0.208-1.064-0.624-1.349c-0.416-0.285-1.013-0.427-1.79-0.427
			H43.49v3.444H45.281z"/>
		<path fill="#FFFFFF" d="M50.448,21.658v-9.736H51.6v9.736H50.448z"/>
		<path fill="#FFFFFF" d="M57.349,21.658l-0.109-0.841c-0.379,0.317-0.773,0.561-1.18,0.732c-0.407,0.172-0.827,0.258-1.261,0.258
			c-0.624,0-1.105-0.171-1.444-0.515s-0.509-0.8-0.509-1.37c0-0.416,0.093-0.786,0.278-1.112c0.185-0.325,0.481-0.601,0.888-0.827
			c0.353-0.19,0.814-0.361,1.383-0.515c0.57-0.154,1.18-0.294,1.831-0.42c0.054-0.615-0.036-1.042-0.271-1.281
			s-0.61-0.359-1.126-0.359c-0.416,0-0.766,0.081-1.051,0.244s-0.549,0.434-0.793,0.814l-0.841-0.529
			c0.316-0.524,0.7-0.899,1.153-1.125c0.452-0.226,0.976-0.339,1.573-0.339c0.868,0,1.5,0.188,1.899,0.563
			c0.398,0.375,0.596,0.951,0.596,1.729v3.797l0.108,1.098h-1.124V21.658z M57.2,17.889c-0.651,0.127-1.175,0.246-1.573,0.359
			c-0.398,0.113-0.728,0.246-0.99,0.4c-0.208,0.127-0.364,0.289-0.468,0.488c-0.104,0.199-0.156,0.425-0.156,0.678
			c0,0.325,0.095,0.583,0.285,0.773s0.461,0.285,0.814,0.285c0.371,0,0.748-0.09,1.132-0.271s0.703-0.425,0.956-0.732V17.889z"/>
		<path fill="#FFFFFF" d="M65.485,20.004c-0.642,1.212-1.609,1.817-2.902,1.817c-0.479,0-0.906-0.086-1.281-0.257
			c-0.375-0.172-0.692-0.416-0.949-0.732c-0.258-0.316-0.457-0.698-0.597-1.146c-0.14-0.447-0.21-0.951-0.21-1.512
			c0-1.175,0.273-2.086,0.82-2.732s1.299-0.97,2.258-0.97c0.651,0,1.209,0.149,1.674,0.448c0.466,0.298,0.816,0.786,1.051,1.464
			l-0.976,0.38c-0.19-0.461-0.423-0.793-0.698-0.997c-0.276-0.203-0.617-0.305-1.024-0.305c-0.597,0-1.074,0.237-1.431,0.712
			c-0.357,0.475-0.535,1.141-0.535,2c0,0.877,0.171,1.539,0.515,1.987c0.344,0.448,0.822,0.671,1.437,0.671
			c0.416,0,0.775-0.104,1.078-0.312s0.581-0.551,0.834-1.031L65.485,20.004z"/>
		<path fill="#FFFFFF" d="M71.044,21.658l-2.034-3.593l-1.275,1.41v2.183h-1.139v-9.736h1.139v6.102h0.027l2.902-3.39h1.302
			L69.77,17.17l2.549,4.488H71.044z"/>
		<path fill="#FFFFFF" d="M73.119,21.658v-9.736h2.752c1.32,0,2.28,0.201,2.882,0.603c0.601,0.402,0.902,1.024,0.902,1.864
			c0,1.013-0.484,1.709-1.451,2.088v0.027c0.352,0.127,0.646,0.276,0.881,0.447c0.235,0.172,0.422,0.362,0.562,0.57
			s0.24,0.434,0.298,0.678c0.059,0.244,0.088,0.497,0.088,0.759c0,0.552-0.104,1.001-0.311,1.349
			c-0.208,0.348-0.488,0.622-0.841,0.82c-0.353,0.199-0.759,0.337-1.22,0.414s-0.94,0.115-1.437,0.115h-3.105V21.658z
			 M75.939,16.099c0.235,0,0.495-0.014,0.78-0.041c0.285-0.027,0.549-0.095,0.793-0.203c0.244-0.109,0.447-0.269,0.61-0.481
			c0.162-0.212,0.244-0.504,0.244-0.875c0-0.344-0.081-0.612-0.244-0.807c-0.163-0.194-0.371-0.341-0.624-0.441
			c-0.253-0.099-0.533-0.16-0.841-0.183c-0.307-0.022-0.601-0.034-0.881-0.034H74.38v3.064h1.559V16.099z M76.169,20.56
			c0.904,0,1.56-0.133,1.966-0.4c0.407-0.267,0.61-0.689,0.61-1.268c0-0.615-0.208-1.064-0.624-1.349
			c-0.416-0.285-1.013-0.427-1.79-0.427H74.38v3.444H76.169z"/>
		<path fill="#FFFFFF" d="M86.84,20.072c-0.344,0.642-0.761,1.094-1.254,1.356c-0.493,0.262-1.037,0.393-1.634,0.393
			c-0.47,0-0.89-0.086-1.261-0.257c-0.371-0.172-0.683-0.416-0.936-0.732s-0.445-0.703-0.576-1.159
			c-0.131-0.456-0.197-0.965-0.197-1.525s0.072-1.066,0.217-1.519c0.144-0.452,0.35-0.838,0.617-1.159
			c0.266-0.321,0.583-0.567,0.949-0.739s0.766-0.258,1.2-0.258c0.47,0,0.886,0.081,1.247,0.244s0.664,0.393,0.908,0.691
			c0.244,0.298,0.429,0.658,0.556,1.078c0.126,0.42,0.189,0.888,0.189,1.403c0,0.054,0,0.115,0,0.183s-0.004,0.147-0.013,0.237
			H82.12c0.036,0.786,0.199,1.403,0.488,1.851s0.764,0.671,1.424,0.671c0.407,0,0.77-0.092,1.091-0.278
			c0.321-0.185,0.599-0.508,0.834-0.969L86.84,20.072z M83.966,15.407c-0.281,0-0.527,0.054-0.739,0.163
			c-0.212,0.108-0.393,0.255-0.542,0.441c-0.149,0.185-0.267,0.402-0.352,0.651c-0.086,0.249-0.147,0.513-0.183,0.793h3.579
			c-0.009-0.624-0.165-1.121-0.467-1.492C84.958,15.593,84.527,15.407,83.966,15.407z"/>
		<path fill="#FFFFFF" d="M87.993,21.658v-7.024h1.099v1.329c0.298-0.533,0.621-0.915,0.97-1.146
			c0.348-0.23,0.739-0.346,1.173-0.346c0.045,0,0.081,0,0.108,0s0.064,0.005,0.109,0.014v1.139
			c-0.055-0.009-0.104-0.014-0.149-0.014c-0.045,0-0.082,0-0.109,0c-0.488,0-0.9,0.163-1.234,0.488
			c-0.335,0.325-0.606,0.728-0.814,1.207v4.353C89.146,21.658,87.993,21.658,87.993,21.658z"/>
		<path fill="#FFFFFF" d="M92.495,21.658v-7.024h1.098v1.329c0.298-0.533,0.622-0.915,0.97-1.146
			c0.348-0.23,0.739-0.346,1.173-0.346c0.045,0,0.082,0,0.109,0s0.063,0.005,0.108,0.014v1.139
			c-0.054-0.009-0.104-0.014-0.149-0.014s-0.081,0-0.108,0c-0.488,0-0.9,0.163-1.234,0.488c-0.335,0.325-0.606,0.728-0.814,1.207
			v4.353C93.648,21.658,92.495,21.658,92.495,21.658z"/>
		<path fill="#FFFFFF" d="M99.878,22.75c-0.159,0.348-0.332,0.626-0.522,0.834c-0.189,0.208-0.406,0.355-0.651,0.44
			s-0.534,0.129-0.868,0.129c-0.353,0-0.669-0.027-0.949-0.081v-0.963c0.28,0.054,0.538,0.082,0.773,0.082
			c0.19,0,0.355-0.023,0.495-0.068s0.262-0.118,0.366-0.217c0.104-0.1,0.199-0.233,0.285-0.4c0.086-0.167,0.169-0.368,0.25-0.603
			l0.136-0.393l-2.495-6.875h1.275l1.776,5.261h0.027l1.722-5.261h1.207l-2.319,6.807C100.206,21.966,100.036,22.402,99.878,22.75z"
			/>
	</g>
	<g>
		<path fill="#FFFFFF" d="M49.601,33.211l-1.695-7.39h-0.027l-1.736,7.39h-1.302l-2.563-9.736h1.37l1.83,7.593h0.027l1.763-7.593
			h1.288l1.681,7.566h0.027l1.912-7.566h1.302l-2.59,9.736H49.601z"/>
		<path fill="#FFFFFF" d="M56.177,33.374c-0.461,0-0.875-0.084-1.241-0.251s-0.68-0.409-0.942-0.725
			c-0.262-0.316-0.463-0.701-0.604-1.153c-0.14-0.452-0.21-0.958-0.21-1.519c0-1.166,0.267-2.075,0.8-2.726s1.266-0.976,2.197-0.976
			s1.661,0.323,2.19,0.97c0.529,0.646,0.793,1.557,0.793,2.732c0,0.561-0.07,1.067-0.21,1.519c-0.14,0.452-0.339,0.836-0.596,1.153
			c-0.258,0.317-0.57,0.558-0.936,0.725C57.052,33.29,56.638,33.374,56.177,33.374z M56.177,32.411c0.307,0,0.576-0.063,0.807-0.19
			c0.231-0.126,0.42-0.307,0.569-0.542c0.149-0.235,0.262-0.518,0.339-0.848s0.115-0.698,0.115-1.105s-0.036-0.777-0.108-1.112
			c-0.073-0.334-0.186-0.622-0.339-0.861c-0.154-0.239-0.346-0.427-0.576-0.563s-0.5-0.204-0.807-0.204
			c-0.317,0-0.588,0.068-0.814,0.204c-0.226,0.136-0.416,0.323-0.569,0.563c-0.154,0.239-0.267,0.527-0.339,0.861
			c-0.072,0.334-0.108,0.705-0.108,1.112s0.038,0.775,0.115,1.105c0.077,0.33,0.19,0.613,0.339,0.848
			c0.149,0.235,0.339,0.416,0.569,0.542C55.601,32.348,55.87,32.411,56.177,32.411z"/>
		<path fill="#FFFFFF" d="M60.231,33.211v-7.024h1.099v1.329c0.298-0.533,0.621-0.915,0.97-1.146
			c0.348-0.231,0.739-0.346,1.173-0.346c0.045,0,0.081,0,0.108,0s0.063,0.005,0.109,0.014v1.139
			c-0.054-0.009-0.104-0.014-0.149-0.014s-0.082,0-0.109,0c-0.488,0-0.899,0.163-1.234,0.488c-0.335,0.326-0.606,0.728-0.814,1.207
			v4.353H60.231z"/>
		<path fill="#FFFFFF" d="M64.693,33.211v-9.736h1.152v9.736H64.693z"/>
		<path fill="#FFFFFF" d="M72.232,33.211l-0.19-0.827c-0.353,0.344-0.701,0.595-1.044,0.753c-0.344,0.158-0.746,0.237-1.207,0.237
			c-0.425,0-0.804-0.086-1.139-0.258c-0.335-0.171-0.619-0.416-0.854-0.732c-0.235-0.316-0.416-0.696-0.542-1.139
			s-0.19-0.936-0.19-1.478c0-0.569,0.068-1.08,0.204-1.532c0.135-0.452,0.33-0.838,0.583-1.16c0.253-0.321,0.556-0.567,0.909-0.739
			c0.353-0.171,0.741-0.257,1.166-0.257c0.777,0,1.446,0.298,2.006,0.895v-3.498h1.153v9.736L72.232,33.211L72.232,33.211z
			 M71.933,28.126c-0.235-0.344-0.508-0.606-0.82-0.786c-0.312-0.181-0.644-0.271-0.997-0.271c-0.597,0-1.06,0.242-1.39,0.725
			c-0.33,0.484-0.495,1.146-0.495,1.986c0,0.814,0.167,1.449,0.501,1.905c0.335,0.456,0.791,0.685,1.37,0.685
			c0.344,0,0.682-0.093,1.017-0.278c0.335-0.185,0.606-0.445,0.814-0.78V28.126z"/>
	</g>
	<g>
		<path fill="#FFFFFF" d="M44.911,10.255V9.851h-0.012c-0.143,0.171-0.305,0.294-0.487,0.367c-0.182,0.074-0.389,0.11-0.621,0.11
			c-0.282,0-0.529-0.053-0.741-0.159s-0.391-0.258-0.536-0.456s-0.253-0.438-0.324-0.719c-0.071-0.282-0.107-0.6-0.107-0.955
			c0-0.359,0.042-0.678,0.126-0.958c0.084-0.279,0.203-0.515,0.358-0.707c0.155-0.192,0.346-0.338,0.572-0.438
			c0.227-0.1,0.484-0.15,0.774-0.15c0.437,0,0.79,0.103,1.059,0.309s0.457,0.538,0.563,0.994L44.77,7.236
			c-0.078-0.282-0.188-0.477-0.33-0.588c-0.143-0.11-0.318-0.165-0.526-0.165c-0.306,0-0.547,0.133-0.722,0.398
			c-0.176,0.265-0.263,0.653-0.263,1.163c0,0.514,0.082,0.91,0.245,1.188c0.163,0.277,0.426,0.416,0.789,0.416
			c0.269,0,0.484-0.075,0.643-0.223c0.159-0.149,0.239-0.356,0.239-0.621c0-0.02,0-0.04,0-0.058s-0.002-0.04-0.006-0.064h-0.875
			V8.07h1.616v2.185C45.58,10.255,44.911,10.255,44.911,10.255z"/>
		<path fill="#FFFFFF" d="M48.914,9.527c-0.167,0.302-0.368,0.511-0.603,0.627s-0.489,0.174-0.762,0.174
			c-0.233,0-0.436-0.042-0.609-0.125c-0.173-0.084-0.318-0.2-0.435-0.349c-0.116-0.149-0.203-0.327-0.26-0.533
			C46.188,9.116,46.16,8.89,46.16,8.646c0-0.253,0.035-0.48,0.104-0.682c0.069-0.202,0.165-0.374,0.288-0.517
			c0.123-0.143,0.27-0.253,0.444-0.331C47.17,7.039,47.36,7,47.568,7c0.453,0,0.793,0.145,1.019,0.435s0.34,0.679,0.34,1.169
			c0,0.025,0,0.053,0,0.086s-0.002,0.071-0.006,0.116h-2.032c0.016,0.286,0.078,0.512,0.184,0.68
			c0.106,0.167,0.284,0.251,0.532,0.251c0.171,0,0.316-0.04,0.435-0.119c0.118-0.08,0.222-0.205,0.312-0.377L48.914,9.527z
			 M47.574,7.562c-0.2,0-0.354,0.07-0.462,0.211s-0.179,0.319-0.211,0.535h1.31c0-0.228-0.056-0.41-0.168-0.545
			C47.93,7.629,47.774,7.562,47.574,7.562z"/>
		<path fill="#FFFFFF" d="M51.081,10.249c-0.09,0.016-0.181,0.029-0.272,0.04c-0.092,0.01-0.189,0.015-0.291,0.015
			c-0.151,0-0.28-0.015-0.386-0.046c-0.106-0.031-0.193-0.082-0.26-0.153c-0.067-0.071-0.116-0.166-0.147-0.284
			s-0.046-0.267-0.046-0.447V7.648h-0.465V7.073h0.465V6.014h0.747v1.059h0.655v0.575h-0.655v1.671c0,0.131,0.025,0.225,0.073,0.282
			c0.049,0.057,0.129,0.086,0.239,0.086c0.114,0,0.228-0.014,0.343-0.043V10.249z"/>
		<path fill="#FFFFFF" d="M53.058,6.564V5.818h0.783v0.747L53.058,6.564L53.058,6.564z M53.076,10.255V7.073h0.741v3.183h-0.741
			V10.255z"/>
		<path fill="#FFFFFF" d="M56.173,10.249c-0.09,0.016-0.181,0.029-0.272,0.04c-0.092,0.01-0.189,0.015-0.291,0.015
			c-0.151,0-0.28-0.015-0.386-0.046c-0.106-0.031-0.193-0.082-0.26-0.153c-0.067-0.071-0.116-0.166-0.147-0.284
			s-0.046-0.267-0.046-0.447V7.648h-0.465V7.073h0.465V6.014h0.747v1.059h0.655v0.575h-0.655v1.671c0,0.131,0.025,0.225,0.073,0.282
			c0.049,0.057,0.129,0.086,0.239,0.086c0.114,0,0.228-0.014,0.343-0.043V10.249z"/>
		<path fill="#FFFFFF" d="M59.913,10.255L59.858,9.9c-0.155,0.131-0.32,0.232-0.493,0.306c-0.174,0.074-0.358,0.11-0.554,0.11
			c-0.269,0-0.48-0.077-0.633-0.23s-0.23-0.364-0.23-0.634c0-0.208,0.044-0.383,0.132-0.523c0.087-0.141,0.219-0.26,0.395-0.358
			c0.159-0.09,0.357-0.165,0.594-0.227c0.237-0.061,0.5-0.12,0.79-0.177c0.02-0.216-0.009-0.372-0.089-0.465
			c-0.08-0.094-0.224-0.141-0.432-0.141c-0.163,0-0.301,0.034-0.413,0.101s-0.213,0.172-0.303,0.315l-0.533-0.33
			c0.143-0.237,0.323-0.404,0.542-0.502c0.218-0.098,0.471-0.147,0.756-0.147c0.412,0,0.715,0.091,0.909,0.272
			c0.194,0.182,0.291,0.462,0.291,0.842V9.68l0.055,0.575H59.913z M59.834,8.64c-0.225,0.045-0.403,0.086-0.535,0.122
			c-0.133,0.036-0.25,0.084-0.352,0.141c-0.159,0.094-0.238,0.243-0.238,0.447c0,0.126,0.036,0.224,0.107,0.294
			s0.169,0.104,0.291,0.104c0.131,0,0.261-0.031,0.392-0.092c0.13-0.061,0.243-0.145,0.337-0.251V8.64H59.834z"/>
		<path fill="#FFFFFF" d="M62.912,10.249c-0.09,0.016-0.181,0.029-0.272,0.04c-0.092,0.01-0.189,0.015-0.291,0.015
			c-0.151,0-0.279-0.015-0.386-0.046c-0.106-0.031-0.193-0.082-0.26-0.153c-0.067-0.071-0.116-0.166-0.147-0.284
			S61.51,9.554,61.51,9.374V7.648h-0.465V7.073h0.465V6.014h0.747v1.059h0.655v0.575h-0.655v1.671c0,0.131,0.025,0.225,0.074,0.282
			c0.049,0.057,0.128,0.086,0.238,0.086c0.114,0,0.228-0.014,0.343-0.043V10.249z"/>
	</g>
</g>
</svg>
