<?xml version="1.0" encoding="utf-8"?>
<!DOCTYPE svg PUBLIC "-//W3C//DTD SVG 1.1//EN" "http://www.w3.org/Graphics/SVG/1.1/DTD/svg11.dtd">
<svg version="1.1" id="Layer_1" xmlns="http://www.w3.org/2000/svg" xmlns:xlink="http://www.w3.org/1999/xlink" x="0px" y="0px"
	 width="139.387px" height="40px" viewBox="-2.194 0 139.387 40" enable-background="new -2.194 0 139.387 40" xml:space="preserve"
	>
<g>
	<path d="M137.193,34.245c0,3.549-2.607,5.755-6.153,5.755L4.231,40c-3.548,0-6.424-2.878-6.424-6.427V6.426
		C-2.193,2.877,0.683,0,4.231,0l126.81,0c3.546,0,6.153,2.877,6.153,6.426V34.245z"/>
</g>
<path fill="#FFFFFF" d="M28.416,19.78c-0.03-3.374,2.763-5.016,2.89-5.092c-1.582-2.306-4.034-2.621-4.895-2.647
	c-2.059-0.217-4.057,1.232-5.106,1.232c-1.07,0-2.685-1.211-4.426-1.176c-2.24,0.035-4.336,1.332-5.486,3.346
	c-2.372,4.107-0.603,10.142,1.67,13.462c1.137,1.627,2.465,3.441,4.204,3.377c1.701-0.069,2.337-1.084,4.39-1.084
	c2.034,0,2.631,1.084,4.404,1.043c1.826-0.028,2.975-1.633,4.072-3.274c1.314-1.862,1.841-3.699,1.862-3.793
	C31.955,25.161,28.452,23.823,28.416,19.78z"/>
<path fill="#FFFFFF" d="M25.066,9.858c0.915-1.144,1.541-2.701,1.367-4.281c-1.324,0.059-2.981,0.916-3.934,2.035
	c-0.844,0.986-1.598,2.603-1.403,4.123C22.584,11.846,24.111,10.984,25.066,9.858z"/>
<g>
	<path fill="#FFFFFF" d="M53.057,32.05h-2.378l-1.302-4.092H44.85L43.61,32.05h-2.315l4.486-13.932h2.77L53.057,32.05z
		 M48.985,26.241l-1.178-3.638c-0.125-0.372-0.359-1.247-0.702-2.625h-0.042c-0.138,0.593-0.359,1.468-0.662,2.625l-1.158,3.638
		H48.985z"/>
	<path fill="#FFFFFF" d="M64.571,26.903c0,1.709-0.464,3.059-1.392,4.05c-0.831,0.883-1.865,1.323-3.097,1.323
		c-1.331,0-2.287-0.474-2.869-1.425v5.271h-2.232V25.306c0-1.073-0.028-2.173-0.083-3.302h1.963l0.125,1.592h0.042
		c0.744-1.2,1.874-1.8,3.39-1.8c1.185,0,2.174,0.468,2.966,1.405C64.174,24.14,64.571,25.374,64.571,26.903z M62.297,26.985
		c0-0.978-0.22-1.784-0.662-2.419c-0.483-0.661-1.131-0.991-1.943-0.991c-0.551,0-1.051,0.184-1.498,0.548
		c-0.448,0.366-0.741,0.845-0.878,1.437c-0.069,0.276-0.104,0.501-0.104,0.679v1.676c0,0.73,0.224,1.346,0.672,1.851
		c0.448,0.503,1.03,0.755,1.746,0.755c0.841,0,1.495-0.326,1.963-0.972C62.062,28.901,62.297,28.046,62.297,26.985z"/>
	<path fill="#FFFFFF" d="M76.125,26.903c0,1.709-0.464,3.059-1.392,4.05c-0.832,0.883-1.865,1.323-3.098,1.323
		c-1.331,0-2.287-0.474-2.869-1.425v5.271h-2.232V25.306c0-1.073-0.028-2.173-0.083-3.302h1.963l0.125,1.592h0.042
		c0.743-1.2,1.873-1.8,3.39-1.8c1.184,0,2.173,0.468,2.967,1.405C75.728,24.14,76.125,25.374,76.125,26.903z M73.851,26.985
		c0-0.978-0.221-1.784-0.663-2.419c-0.483-0.661-1.129-0.991-1.941-0.991c-0.551,0-1.051,0.184-1.5,0.548
		c-0.448,0.366-0.74,0.845-0.877,1.437c-0.068,0.276-0.105,0.501-0.105,0.679v1.676c0,0.73,0.225,1.346,0.671,1.851
		c0.448,0.501,1.03,0.755,1.748,0.755c0.842,0,1.496-0.326,1.963-0.972C73.616,28.901,73.851,28.046,73.851,26.985z"/>
	<path fill="#FFFFFF" d="M89.044,28.142c0,1.186-0.415,2.15-1.238,2.895c-0.907,0.812-2.172,1.22-3.795,1.22
		c-1.499,0-2.701-0.289-3.608-0.868l0.516-1.86c0.979,0.58,2.054,0.869,3.224,0.869c0.842,0,1.496-0.191,1.963-0.568
		c0.468-0.379,0.705-0.886,0.705-1.518c0-0.566-0.196-1.041-0.58-1.427c-0.386-0.385-1.025-0.744-1.922-1.074
		c-2.439-0.91-3.66-2.24-3.66-3.991c0-1.143,0.431-2.079,1.292-2.811c0.861-0.731,2.002-1.096,3.421-1.096
		c1.268,0,2.324,0.221,3.163,0.662l-0.56,1.82c-0.789-0.427-1.68-0.641-2.677-0.641c-0.787,0-1.405,0.194-1.847,0.579
		c-0.372,0.344-0.56,0.764-0.56,1.263c0,0.55,0.215,1.006,0.642,1.364c0.371,0.33,1.047,0.689,2.025,1.074
		c1.2,0.484,2.081,1.047,2.646,1.694C88.762,26.372,89.044,27.18,89.044,28.142z"/>
	<path fill="#FFFFFF" d="M96.443,23.679h-2.46v4.878c0,1.241,0.433,1.859,1.302,1.859c0.399,0,0.73-0.034,0.991-0.104l0.062,1.695
		c-0.44,0.164-1.019,0.247-1.736,0.247c-0.881,0-1.57-0.269-2.068-0.807c-0.495-0.538-0.744-1.439-0.744-2.708v-5.064h-1.466V22
		h1.466V20.16l2.192-0.662V22h2.46C96.443,22,96.443,23.679,96.443,23.679z"/>
	<path fill="#FFFFFF" d="M107.521,26.944c0,1.544-0.442,2.812-1.323,3.803c-0.922,1.021-2.149,1.53-3.679,1.53
		c-1.476,0-2.65-0.489-3.525-1.466c-0.875-0.979-1.313-2.212-1.313-3.7c0-1.557,0.452-2.832,1.354-3.823
		c0.903-0.992,2.12-1.489,3.649-1.489c1.474,0,2.658,0.49,3.554,1.468C107.095,24.216,107.521,25.441,107.521,26.944z
		 M105.207,26.995c0-0.92-0.199-1.71-0.598-2.37c-0.468-0.798-1.138-1.197-2.006-1.197c-0.894,0-1.58,0.399-2.047,1.197
		c-0.4,0.661-0.599,1.464-0.599,2.412c0,0.921,0.199,1.713,0.599,2.371c0.483,0.798,1.156,1.197,2.028,1.197
		c0.853,0,1.522-0.407,2.006-1.216C105.001,28.712,105.207,27.918,105.207,26.995z"/>
	<path fill="#FFFFFF" d="M114.779,23.967c-0.221-0.041-0.457-0.062-0.704-0.062c-0.785,0-1.392,0.295-1.82,0.89
		c-0.371,0.523-0.557,1.185-0.557,1.984v5.271h-2.232v-6.882c0-1.157-0.022-2.212-0.065-3.163h1.944l0.082,1.922h0.062
		c0.237-0.661,0.607-1.193,1.116-1.592c0.497-0.359,1.034-0.538,1.613-0.538c0.206,0,0.393,0.015,0.558,0.041L114.779,23.967
		L114.779,23.967z"/>
	<path fill="#FFFFFF" d="M124.761,26.552c0,0.4-0.026,0.737-0.082,1.012h-6.696c0.025,0.992,0.35,1.753,0.972,2.276
		c0.564,0.467,1.294,0.701,2.19,0.701c0.991,0,1.896-0.157,2.709-0.474l0.35,1.548c-0.951,0.415-2.073,0.621-3.368,0.621
		c-1.558,0-2.781-0.459-3.67-1.374c-0.888-0.916-1.333-2.147-1.333-3.689c0-1.514,0.414-2.775,1.242-3.781
		c0.867-1.074,2.038-1.611,3.512-1.611c1.448,0,2.544,0.537,3.288,1.611C124.465,24.243,124.761,25.298,124.761,26.552z
		 M122.633,25.973c0.016-0.663-0.131-1.233-0.433-1.716c-0.386-0.622-0.981-0.932-1.778-0.932c-0.73,0-1.324,0.303-1.777,0.91
		c-0.372,0.483-0.593,1.063-0.661,1.736L122.633,25.973L122.633,25.973z"/>
</g>
<g>
	<g>
		<path fill="#FFFFFF" d="M44.206,13.192c-0.621,0-1.158-0.03-1.605-0.082V6.375c0.579-0.091,1.208-0.142,1.89-0.142
			c2.56,0,3.738,1.259,3.738,3.312C48.23,11.913,46.837,13.192,44.206,13.192z M44.581,7.096c-0.345,0-0.64,0.021-0.884,0.071v5.12
			c0.132,0.021,0.385,0.03,0.741,0.03c1.677,0,2.632-0.955,2.632-2.743C47.071,7.981,46.207,7.096,44.581,7.096z"/>
		<path fill="#FFFFFF" d="M51.903,13.243c-1.443,0-2.378-1.077-2.378-2.54c0-1.524,0.955-2.611,2.459-2.611
			c1.422,0,2.378,1.026,2.378,2.53C54.362,12.166,53.377,13.243,51.903,13.243z M51.945,8.894c-0.793,0-1.3,0.741-1.3,1.778
			c0,1.017,0.518,1.758,1.29,1.758s1.29-0.793,1.29-1.779C53.224,9.646,52.717,8.894,51.945,8.894z"/>
		<path fill="#FFFFFF" d="M62.589,8.194l-1.544,4.937h-1.006l-0.64-2.144c-0.162-0.538-0.294-1.067-0.397-1.594h-0.021
			c-0.081,0.538-0.233,1.077-0.396,1.594l-0.68,2.144h-1.017l-1.453-4.937h1.128l0.559,2.347c0.132,0.559,0.243,1.087,0.335,1.585
			h0.021c0.081-0.416,0.213-0.935,0.406-1.575l0.701-2.357h0.894l0.671,2.306c0.162,0.559,0.294,1.108,0.397,1.626h0.029
			c0.071-0.508,0.183-1.047,0.335-1.626l0.6-2.306L62.589,8.194L62.589,8.194z"/>
		<path fill="#FFFFFF" d="M68.274,13.131h-1.097v-2.835c0-0.873-0.335-1.311-0.996-1.311c-0.65,0-1.097,0.559-1.097,1.209v2.937
			h-1.097V9.605c0-0.437-0.01-0.905-0.041-1.412h0.965l0.051,0.762h0.03c0.295-0.528,0.894-0.863,1.565-0.863
			c1.036,0,1.717,0.793,1.717,2.082L68.274,13.131L68.274,13.131z"/>
		<path fill="#FFFFFF" d="M71.299,13.131h-1.098V5.929h1.098V13.131z"/>
		<path fill="#FFFFFF" d="M75.299,13.243c-1.442,0-2.378-1.077-2.378-2.54c0-1.524,0.955-2.611,2.458-2.611
			c1.423,0,2.378,1.026,2.378,2.53C77.759,12.166,76.772,13.243,75.299,13.243z M75.34,8.894c-0.793,0-1.3,0.741-1.3,1.778
			c0,1.017,0.519,1.758,1.289,1.758c0.773,0,1.29-0.793,1.29-1.779C76.62,9.646,76.113,8.894,75.34,8.894z"/>
		<path fill="#FFFFFF" d="M82.083,13.131l-0.08-0.568h-0.029c-0.335,0.457-0.824,0.68-1.444,0.68c-0.885,0-1.513-0.62-1.513-1.453
			c0-1.219,1.056-1.849,2.885-1.849V9.85c0-0.65-0.344-0.976-1.025-0.976c-0.487,0-0.914,0.122-1.29,0.366L79.366,8.52
			c0.456-0.285,1.026-0.427,1.695-0.427c1.29,0,1.941,0.68,1.941,2.043v1.818c0,0.498,0.022,0.885,0.071,1.179L82.083,13.131
			L82.083,13.131z M81.933,10.672c-1.219,0-1.83,0.295-1.83,0.996c0,0.518,0.315,0.772,0.753,0.772c0.558,0,1.077-0.426,1.077-1.005
			V10.672z"/>
		<path fill="#FFFFFF" d="M88.329,13.131l-0.051-0.793h-0.03c-0.315,0.599-0.845,0.905-1.585,0.905c-1.19,0-2.072-1.047-2.072-2.52
			c0-1.544,0.914-2.632,2.162-2.632c0.661,0,1.129,0.223,1.392,0.671h0.022V5.929h1.098v5.872c0,0.477,0.012,0.924,0.041,1.331
			C89.306,13.131,88.329,13.131,88.329,13.131z M88.167,10.226c0-0.691-0.457-1.28-1.156-1.28c-0.813,0-1.311,0.721-1.311,1.737
			c0,0.996,0.516,1.677,1.289,1.677c0.69,0,1.178-0.6,1.178-1.311C88.167,11.049,88.167,10.226,88.167,10.226z"/>
		<path fill="#FFFFFF" d="M96.228,13.243c-1.442,0-2.376-1.077-2.376-2.54c0-1.524,0.955-2.611,2.458-2.611
			c1.423,0,2.378,1.026,2.378,2.53C98.688,12.166,97.703,13.243,96.228,13.243z M96.269,8.894c-0.791,0-1.299,0.741-1.299,1.778
			c0,1.017,0.518,1.758,1.289,1.758c0.773,0,1.29-0.793,1.29-1.779C97.55,9.646,97.043,8.894,96.269,8.894z"/>
		<path fill="#FFFFFF" d="M104.588,13.131h-1.098v-2.835c0-0.873-0.335-1.311-0.996-1.311c-0.65,0-1.096,0.559-1.096,1.209v2.937
			h-1.098V9.605c0-0.437-0.01-0.905-0.041-1.412h0.965l0.051,0.762h0.03c0.294-0.528,0.894-0.864,1.564-0.864
			c1.036,0,1.718,0.793,1.718,2.082V13.131z"/>
		<path fill="#FFFFFF" d="M111.969,9.017h-1.207v2.397c0,0.61,0.211,0.915,0.639,0.915c0.194,0,0.356-0.021,0.487-0.051l0.03,0.833
			c-0.213,0.082-0.497,0.122-0.851,0.122c-0.865,0-1.382-0.477-1.382-1.727v-2.49h-0.72V8.194h0.72V7.29l1.077-0.326v1.229h1.207
			C111.969,8.193,111.969,9.017,111.969,9.017z"/>
		<path fill="#FFFFFF" d="M117.777,13.131h-1.096v-2.814c0-0.884-0.334-1.331-0.996-1.331c-0.568,0-1.098,0.386-1.098,1.168v2.976
			h-1.096V5.929h1.096v2.966h0.022c0.345-0.538,0.846-0.803,1.485-0.803c1.045,0,1.683,0.812,1.683,2.103
			C117.777,10.195,117.777,13.131,117.777,13.131z"/>
		<path fill="#FFFFFF" d="M123.728,10.927h-3.292c0.021,0.935,0.64,1.463,1.556,1.463c0.487,0,0.935-0.082,1.331-0.233l0.171,0.762
			c-0.467,0.203-1.017,0.305-1.656,0.305c-1.544,0-2.458-0.976-2.458-2.488c0-1.514,0.936-2.652,2.335-2.652
			c1.262,0,2.053,0.935,2.053,2.347C123.769,10.622,123.759,10.795,123.728,10.927z M122.722,10.144c0-0.762-0.384-1.3-1.086-1.3
			c-0.63,0-1.129,0.549-1.2,1.3H122.722z"/>
	</g>
</g>
</svg>
