<?xml version="1.0" encoding="utf-8"?>
<!DOCTYPE svg PUBLIC "-//W3C//DTD SVG 1.1//EN" "http://www.w3.org/Graphics/SVG/1.1/DTD/svg11.dtd">
<svg version="1.1" id="Layer_1" xmlns="http://www.w3.org/2000/svg" xmlns:xlink="http://www.w3.org/1999/xlink" x="0px" y="0px"
	 width="1000px" height="883px" viewBox="0 0 1000 883" enable-background="new 0 0 1000 883" xml:space="preserve">
<g>
	<g>
		<path fill="#FFFFFF" d="M157.001,692.344c5.476,5.618,10.926,10.576,16.348,14.873c5.423,4.297,14.225,9.233,26.408,14.807
			c12.183,5.574,22.168,9.845,29.955,12.814c7.787,2.969,19.63,7.484,35.529,13.546c15.899,6.062,27.742,10.577,35.529,13.546
			c7.787,2.969,18.081,6.429,30.883,10.381c12.801,3.952,22.655,6.129,29.562,6.533c2.934,0.172,5.952,0.257,9.052,0.257
			c4.197,0,8.547-0.157,13.049-0.472c7.827-0.546,14.19-2.859,19.089-6.937c4.9-4.078,8.71-9.686,11.432-16.824l21.525-56.457
			l216.123,66.233c7.859-3.521,15.78-12.895,23.763-28.046c-163.831-56.242-337.552-91.185-517.868-101.538l-7.334,19.236
			c-2.721,7.138-3.612,13.86-2.671,20.165C148.316,680.765,151.525,686.726,157.001,692.344z"/>
	</g>
	<g>
		<path fill="#FFFFFF" d="M280.618,801.63c-8.385-19.92-15.985-31.179-22.799-33.777c-1.491-0.568-3.283-0.852-5.382-0.852
			c-7.494,0.001-18.868,3.627-34.117,10.878c-20.863,9.884-37.782,34.279-50.757,73.184c-3.644,10.926-6.237,21.519-7.781,31.78
			H272.75C286.402,848.595,289.026,821.523,280.618,801.63z"/>
	</g>
	<g>
		<path fill="#FFFFFF" d="M703.343,746.487c-12.029,24.057-24.767,38.342-39.8,45.076l-10.11,4.529l-10.592-3.246l-189.746-58.149
			l-11.697,30.681c-4.535,11.895-11.306,21.648-20.123,28.987c-9.733,8.101-21.813,12.707-35.904,13.691
			c-5.16,0.361-10.242,0.543-15.104,0.543c-3.657,0-7.282-0.104-10.772-0.307c-9.501-0.555-21.113-3.032-36.542-7.795
			c-4.581-1.414-8.835-2.761-12.788-4.051c7.977,23.878,6.034,52.338-5.918,86.398H1000
			C905.734,829.462,806.574,783.718,703.343,746.487z"/>
	</g>
	<path fill="none" d="M357.639,315.783c20.831,0.701,48.684-0.448,65.75-5.838c6.081-1.923,9.855-4.999,12.326-8.733
		c-0.645,4.43,0.122,9.238,3.382,14.722c9.142,15.382,29.163,34.783,45.173,48.128c20.957,17.472,54.227,32.807,72.891,1.186
		c7.674-12.999,10.04-33.468,8.23-28.721c-1.811,4.751-17.257,16.733-32.362,12.527c-18.439-5.133-12.215-41.382-19.653-60.236
		c-11.69-29.606-56.761-25.481-71.513-1.792c-0.697,1.134-1.386,2.263-2.037,3.4c0.272-1.282,0.513-2.582,0.738-3.896
		c4.765-27.496-26.12-60.58-54.551-46.271c-18.104,9.115-37.595,40.306-54.766,31.863c-14.073-6.919-17.62-26.141-15.809-30.892
		c1.81-4.747-10.053,12.101-12.98,26.91C295.34,304.163,330.37,314.868,357.639,315.783z"/>
	<path fill="none" d="M184.12,452.05c-0.095-1.875-0.497-3.611-1.207-5.21c-0.714-1.599-1.734-3.059-3.064-4.383
		c-1.332-1.324-2.891-2.329-4.681-3.016l-39.58-15.193c-1.789-0.687-3.622-0.984-5.496-0.891c-1.876,0.094-3.631,0.489-5.266,1.186
		c-1.637,0.698-3.098,1.719-4.383,3.064c-1.286,1.346-2.273,2.913-2.959,4.702l-20,52.103c-0.687,1.789-1.003,3.615-0.947,5.475
		c0.055,1.861,0.45,3.616,1.186,5.266c0.734,1.651,1.774,3.118,3.12,4.405c1.345,1.286,2.913,2.273,4.702,2.959l39.58,15.193
		c1.789,0.687,3.614,1.002,5.475,0.947c1.859-0.056,3.594-0.458,5.21-1.207c1.612-0.749,3.079-1.789,4.405-3.12
		c1.323-1.33,2.329-2.891,3.015-4.68l20-52.103C183.916,455.757,184.213,453.925,184.12,452.05z M145.714,496.126l-26.276-10.086
		l15.451-40.251l26.276,10.086L145.714,496.126z"/>
	<path fill="none" d="M414.143,214.112c22.385,8.534,47.45-2.694,55.984-25.078c8.534-22.385-2.694-47.45-25.078-55.984
		c-22.385-8.534-47.45,2.694-55.984,25.078C380.53,180.513,391.758,205.578,414.143,214.112z M429.967,181.451
		c2.321-6.089,9.139-9.143,15.228-6.821c6.089,2.321,9.143,9.139,6.821,15.228c-2.321,6.089-9.139,9.143-15.228,6.821
		C430.699,194.357,427.645,187.539,429.967,181.451z"/>
	<path fill="none" d="M266.3,483.596c-0.093-1.874-0.495-3.61-1.207-5.21c-0.713-1.598-1.734-3.059-3.064-4.383
		c-1.332-1.324-2.89-2.328-4.679-3.015l-50.538-19.4c-1.418-0.544-2.397-0.106-2.94,1.309l-28.413,74.019
		c-0.544,1.416-0.109,2.396,1.309,2.94l15.429,5.922c1.416,0.544,2.396,0.107,2.94-1.309l7.983-20.796
		c0.143-0.373,0.401-0.489,0.775-0.345l13.306,5.108c0.371,0.143,0.574,0.394,0.61,0.748l3.697,25.793
		c0.097,0.637,0.381,1.236,0.85,1.801c0.467,0.564,0.997,0.961,1.594,1.19l17.779,6.825c0.596,0.229,1.071,0.218,1.423-0.032
		c0.352-0.25,0.478-0.692,0.381-1.328l-4.022-25.277l-0.027-0.266c-0.186-0.411,0.013-0.593,0.593-0.542l0.378,0.016
		c2.922,0.182,5.659-0.541,8.211-2.172c2.549-1.629,4.367-3.859,5.454-6.694l11.288-29.405
		C266.096,487.302,266.392,485.471,266.3,483.596z M236.349,505.645l-26.947-10.344l7.296-19.007l26.947,10.344L236.349,505.645z"/>
	<path fill="none" d="M509.796,250.581c22.385,8.534,47.45-2.694,55.984-25.078c8.534-22.385-2.694-47.45-25.078-55.984
		c-22.385-8.534-47.45,2.694-55.984,25.078C476.184,216.982,487.411,242.046,509.796,250.581z M525.62,217.919
		c2.321-6.089,9.139-9.143,15.228-6.821c6.089,2.321,9.143,9.139,6.821,15.228s-9.139,9.143-15.228,6.821
		C526.353,230.826,523.299,224.008,525.62,217.919z"/>
	<path fill="none" d="M587.526,597.73l-15.876-6.094l-4.138-1.589l-15.541-5.966l-4.137-1.588l-15.878-6.095
		c-1.416-0.544-2.397-0.106-2.94,1.309l-5.666,14.759c-0.229,0.597-0.218,1.178,0.036,1.744c0.252,0.569,0.676,0.966,1.273,1.196
		l15.878,6.095c0.596,0.229,1.008,0.6,1.239,1.116c0.228,0.517,0.229,1.072,0,1.668l-21.16,55.122
		c-0.229,0.597-0.218,1.18,0.035,1.746c0.251,0.567,0.677,0.965,1.274,1.194l15.541,5.966c0.596,0.229,1.159,0.211,1.69-0.057
		c0.53-0.266,0.91-0.698,1.14-1.295l21.159-55.122c0.229-0.596,0.619-1.001,1.173-1.218c0.552-0.216,1.125-0.209,1.724,0.021
		l15.876,6.094c0.596,0.229,1.178,0.218,1.746-0.037c0.566-0.252,0.964-0.675,1.194-1.272l5.666-14.759
		c0.229-0.596,0.216-1.179-0.035-1.746C588.546,598.358,588.121,597.959,587.526,597.73z"/>
	<path fill="none" d="M506.446,567.826c-1.332-1.324-2.89-2.328-4.679-3.015l-50.538-19.4c-1.418-0.544-2.397-0.106-2.94,1.309
		l-28.413,74.019c-0.544,1.416-0.109,2.396,1.309,2.94l15.429,5.922c1.416,0.544,2.396,0.107,2.94-1.309l7.983-20.796
		c0.143-0.373,0.401-0.489,0.775-0.345l13.306,5.108c0.371,0.142,0.574,0.394,0.61,0.748l3.697,25.793
		c0.097,0.637,0.381,1.236,0.85,1.801c0.467,0.564,0.997,0.961,1.594,1.19l17.779,6.825c0.596,0.229,1.071,0.218,1.423-0.032
		c0.352-0.25,0.478-0.691,0.381-1.328l-4.022-25.277l-0.027-0.266c-0.186-0.411,0.013-0.593,0.593-0.542l0.378,0.016
		c2.922,0.182,5.659-0.541,8.211-2.172c2.549-1.629,4.367-3.859,5.454-6.694l11.288-29.405c0.687-1.789,0.984-3.621,0.891-5.496
		c-0.093-1.874-0.495-3.61-1.207-5.21C508.797,570.611,507.776,569.151,506.446,567.826z M480.766,599.468l-26.947-10.344
		l7.296-19.007l26.947,10.344L480.766,599.468z"/>
	<path fill="none" d="M412.669,566.657l-31.866-12.232c-0.373-0.143-0.501-0.362-0.387-0.662l4.678-12.187
		c0.143-0.371,0.4-0.487,0.773-0.344l37.457,14.378c0.596,0.229,1.171,0.237,1.725,0.02c0.551-0.214,0.943-0.619,1.172-1.216
		l5.408-14.089c0.229-0.596,0.216-1.179-0.035-1.746c-0.253-0.566-0.678-0.965-1.274-1.194l-44.612-17.125
		c-1.789-0.687-3.621-0.984-5.496-0.891c-1.876,0.094-3.631,0.489-5.266,1.186c-1.635,0.698-3.096,1.72-4.383,3.064
		c-1.286,1.346-2.273,2.913-2.959,4.702l-20,52.102c-0.687,1.789-1.003,3.615-0.947,5.474c0.057,1.862,0.452,3.617,1.186,5.266
		c0.734,1.651,1.774,3.119,3.12,4.405c1.346,1.286,2.913,2.272,4.702,2.959l44.612,17.125c0.596,0.229,1.178,0.218,1.746-0.035
		c0.566-0.252,0.965-0.677,1.194-1.274l5.365-13.976c0.229-0.596,0.216-1.177-0.035-1.746c-0.253-0.566-0.678-0.965-1.274-1.194
		l-37.457-14.378c-0.373-0.143-0.487-0.4-0.344-0.773l4.636-12.076c0.142-0.371,0.4-0.487,0.773-0.344l31.866,12.232
		c1.415,0.543,2.396,0.107,2.94-1.309l4.292-11.181c0.229-0.596,0.216-1.177-0.035-1.746
		C413.689,567.285,413.264,566.886,412.669,566.657z"/>
	<path fill="none" d="M351.499,516.301c-0.093-1.874-0.495-3.61-1.207-5.21c-0.713-1.598-1.734-3.059-3.064-4.383
		c-1.332-1.324-2.89-2.328-4.679-3.015l-50.54-19.4c-1.416-0.544-2.397-0.106-2.94,1.309l-28.413,74.019
		c-0.544,1.416-0.107,2.396,1.309,2.94l50.539,19.4c1.789,0.687,3.612,1.002,5.473,0.946c1.859-0.056,3.596-0.458,5.21-1.207
		c1.613-0.748,3.081-1.788,4.405-3.12c1.323-1.33,2.329-2.891,3.016-4.68l5.837-15.206c0.229-0.596,0.348-1.298,0.359-2.106
		c0.01-0.809-0.083-1.508-0.285-2.098l-2.549-7.393c-0.231-0.517-0.235-1.117-0.015-1.803c0.22-0.685,0.601-1.18,1.147-1.483
		l7.168-4.305c0.544-0.303,1.081-0.759,1.615-1.368c0.532-0.607,0.913-1.208,1.142-1.806l5.579-14.535
		C351.295,520.007,351.592,518.176,351.499,516.301z M314.263,563.007l-30.076-11.545l5.88-15.318l30.076,11.545L314.263,563.007z
		 M325.852,532.818l-30.076-11.545l5.365-13.976l30.076,11.545L325.852,532.818z"/>
	<circle fill="#FFFFFF" cx="440.991" cy="185.654" r="11.799"/>
	<circle fill="#FFFFFF" cx="536.645" cy="222.123" r="11.799"/>

		<rect x="212.091" y="480.79" transform="matrix(-0.9336 -0.3584 0.3584 -0.9336 262.0525 1030.5076)" fill="#FFFFFF" width="28.864" height="20.359"/>

		<rect x="286.057" y="541.372" transform="matrix(-0.9336 -0.3584 0.3584 -0.9336 387.3097 1170.9357)" fill="#FFFFFF" width="32.215" height="16.408"/>

		<rect x="126.228" y="449.4" transform="matrix(-0.9336 -0.3584 0.3584 -0.9336 102.508 960.913)" fill="#FFFFFF" width="28.145" height="43.114"/>
	<path fill="#FFFFFF" d="M698.972,640.048l-67.456-150.586c-16.262-36.302-27.2-72.433-32.815-108.392
		c-5.615-35.959-7.492-68.077-5.63-96.355l4.453-11.681c6.433-16.872,10.141-44.632,11.125-83.278
		c0.984-38.646-2.568-76.606-10.655-113.879c-8.087-37.273-24.313-61.484-48.679-72.631c-25.602-7.903-53.828-0.64-84.677,21.788
		c-30.849,22.429-58.771,48.389-83.765,77.881c-24.994,29.492-40.708,52.674-47.141,69.546l-4.453,11.681
		c-17.436,22.339-40.219,45.056-68.349,68.15c-28.129,23.094-60.345,42.772-96.647,59.033L13.698,378.781
		C9.211,380.791,4.645,384.86,0,390.969v127.957l171.555,78.912l-21.525,56.457c-2.721,7.138-3.612,13.86-2.671,20.165
		c0.941,6.305,4.15,12.266,9.626,17.885c5.476,5.618,10.926,10.576,16.349,14.873c5.423,4.297,14.225,9.233,26.408,14.807
		c12.183,5.574,22.168,9.845,29.955,12.814c7.787,2.969,19.63,7.484,35.529,13.546c15.899,6.062,27.742,10.577,35.529,13.546
		c7.787,2.969,18.081,6.429,30.883,10.381c12.801,3.952,22.655,6.129,29.562,6.533c6.907,0.404,14.274,0.332,22.101-0.214
		c7.827-0.546,14.19-2.859,19.089-6.937c4.9-4.078,8.71-9.686,11.432-16.825l21.525-56.457l216.123,66.233
		c12.101-5.421,24.348-24.628,36.742-57.624C700.605,674.024,704.192,651.7,698.972,640.048z M484.718,194.597
		c8.534-22.385,33.599-33.613,55.984-25.078c22.385,8.534,33.613,33.599,25.078,55.984c-8.534,22.385-33.599,33.613-55.984,25.078
		C487.411,242.046,476.184,216.982,484.718,194.597z M389.064,158.128c8.534-22.385,33.599-33.613,55.984-25.078
		c22.385,8.534,33.613,33.599,25.078,55.984c-8.534,22.385-33.599,33.613-55.984,25.078
		C391.758,205.578,380.53,180.513,389.064,158.128z M302.461,268.141c2.927-14.809,14.79-31.657,12.98-26.91
		c-1.811,4.751,1.736,23.974,15.809,30.892c17.17,8.443,36.661-22.748,54.766-31.863c28.43-14.31,59.316,18.774,54.551,46.271
		c-0.225,1.313-0.466,2.613-0.738,3.896c0.651-1.138,1.34-2.267,2.037-3.4c14.752-23.689,59.823-27.814,71.513,1.792
		c7.438,18.853,1.214,55.102,19.653,60.236c15.105,4.206,30.551-7.776,32.362-12.527c1.81-4.747-0.556,15.722-8.23,28.721
		c-18.665,31.621-51.934,16.286-72.891-1.186c-16.01-13.345-36.031-32.746-45.173-48.128c-3.26-5.484-4.028-10.292-3.382-14.722
		c-2.471,3.734-6.245,6.81-12.326,8.733c-17.066,5.39-44.919,6.539-65.75,5.838C330.37,314.868,295.34,304.163,302.461,268.141z
		 M163.229,509.648c-0.687,1.789-1.692,3.35-3.015,4.68c-1.325,1.331-2.793,2.371-4.405,3.12c-1.615,0.749-3.35,1.152-5.21,1.207
		c-1.861,0.055-3.685-0.26-5.475-0.947l-39.58-15.193c-1.789-0.687-3.357-1.674-4.702-2.959c-1.346-1.286-2.386-2.754-3.12-4.405
		c-0.736-1.65-1.131-3.405-1.186-5.266c-0.056-1.859,0.26-3.685,0.947-5.475l20-52.103c0.687-1.789,1.673-3.356,2.959-4.702
		c1.286-1.344,2.746-2.366,4.383-3.064c1.635-0.697,3.39-1.092,5.266-1.186c1.874-0.093,3.707,0.204,5.496,0.891l39.58,15.193
		c1.789,0.687,3.349,1.692,4.681,3.016c1.33,1.325,2.349,2.785,3.064,4.383c0.711,1.599,1.113,3.335,1.207,5.21
		c0.093,1.875-0.204,3.707-0.891,5.496L163.229,509.648z M248.667,525.19c-2.552,1.632-5.289,2.355-8.211,2.172l-0.378-0.016
		c-0.58-0.051-0.779,0.131-0.593,0.542l0.027,0.266l4.022,25.277c0.097,0.637-0.029,1.079-0.381,1.328
		c-0.352,0.25-0.827,0.261-1.423,0.032l-17.779-6.825c-0.597-0.229-1.127-0.626-1.594-1.19c-0.469-0.565-0.752-1.164-0.85-1.801
		l-3.697-25.793c-0.036-0.354-0.238-0.605-0.61-0.748l-13.306-5.108c-0.374-0.144-0.632-0.028-0.775,0.345l-7.983,20.796
		c-0.544,1.416-1.524,1.853-2.94,1.309l-15.429-5.922c-1.418-0.544-1.853-1.524-1.309-2.94l28.413-74.019
		c0.543-1.415,1.522-1.853,2.94-1.309l50.538,19.4c1.789,0.687,3.347,1.691,4.679,3.015c1.33,1.325,2.351,2.785,3.064,4.383
		c0.712,1.6,1.114,3.336,1.207,5.21c0.093,1.875-0.204,3.707-0.891,5.496l-11.288,29.405
		C253.033,521.331,251.216,523.561,248.667,525.19z M343.887,538.137c-0.535,0.609-1.071,1.065-1.615,1.368l-7.168,4.305
		c-0.546,0.304-0.927,0.798-1.147,1.483c-0.22,0.685-0.216,1.286,0.015,1.803l2.549,7.393c0.202,0.589,0.295,1.289,0.285,2.098
		c-0.011,0.808-0.131,1.511-0.359,2.106l-5.837,15.206c-0.687,1.789-1.692,3.35-3.016,4.68c-1.324,1.332-2.791,2.372-4.405,3.12
		c-1.614,0.75-3.35,1.151-5.21,1.207c-1.861,0.055-3.684-0.26-5.473-0.946l-50.539-19.4c-1.416-0.544-1.853-1.524-1.309-2.94
		l28.413-74.019c0.543-1.415,1.524-1.853,2.94-1.309l50.54,19.4c1.789,0.687,3.347,1.691,4.679,3.015
		c1.33,1.325,2.351,2.785,3.064,4.383c0.712,1.6,1.114,3.336,1.207,5.21c0.093,1.875-0.204,3.707-0.891,5.496l-5.579,14.535
		C344.8,536.929,344.418,537.531,343.887,538.137z M413.978,569.597l-4.292,11.181c-0.544,1.416-1.525,1.852-2.94,1.309
		l-31.866-12.232c-0.373-0.143-0.63-0.027-0.773,0.344l-4.636,12.076c-0.143,0.373-0.029,0.63,0.344,0.773l37.457,14.378
		c0.596,0.229,1.021,0.628,1.274,1.194c0.251,0.569,0.264,1.15,0.035,1.746l-5.365,13.976c-0.229,0.597-0.629,1.022-1.194,1.274
		c-0.568,0.253-1.15,0.264-1.746,0.035l-44.612-17.125c-1.789-0.687-3.356-1.673-4.702-2.959c-1.346-1.286-2.386-2.754-3.12-4.405
		c-0.734-1.649-1.129-3.404-1.186-5.266c-0.056-1.859,0.26-3.685,0.947-5.474l20-52.102c0.687-1.789,1.673-3.356,2.959-4.702
		c1.287-1.344,2.748-2.365,4.383-3.064c1.635-0.697,3.39-1.092,5.266-1.186c1.875-0.093,3.707,0.204,5.496,0.891l44.612,17.125
		c0.596,0.229,1.021,0.628,1.274,1.194c0.251,0.567,0.264,1.15,0.035,1.746l-5.408,14.089c-0.229,0.597-0.621,1.002-1.172,1.216
		c-0.554,0.217-1.129,0.209-1.725-0.02l-37.457-14.378c-0.373-0.143-0.63-0.027-0.773,0.344l-4.678,12.187
		c-0.115,0.3,0.014,0.519,0.387,0.662l31.866,12.232c0.596,0.229,1.021,0.628,1.274,1.194
		C414.193,568.42,414.206,569.002,413.978,569.597z M509.827,582.915l-11.288,29.405c-1.088,2.834-2.905,5.065-5.454,6.694
		c-2.552,1.632-5.289,2.355-8.211,2.172l-0.378-0.016c-0.58-0.051-0.779,0.131-0.593,0.542l0.027,0.266l4.022,25.277
		c0.097,0.637-0.029,1.079-0.381,1.328c-0.352,0.25-0.827,0.261-1.423,0.032l-17.779-6.825c-0.598-0.229-1.127-0.626-1.594-1.19
		c-0.469-0.565-0.752-1.164-0.85-1.801l-3.697-25.793c-0.036-0.354-0.238-0.605-0.61-0.748l-13.306-5.108
		c-0.374-0.144-0.632-0.028-0.775,0.345l-7.983,20.796c-0.544,1.416-1.524,1.853-2.94,1.309l-15.429-5.922
		c-1.418-0.544-1.853-1.524-1.309-2.94l28.413-74.019c0.543-1.415,1.522-1.853,2.94-1.309l50.538,19.4
		c1.789,0.687,3.347,1.691,4.679,3.015c1.33,1.325,2.351,2.785,3.064,4.383c0.712,1.599,1.114,3.336,1.207,5.21
		C510.81,579.294,510.513,581.126,509.827,582.915z M588.835,600.67l-5.666,14.759c-0.229,0.597-0.628,1.021-1.194,1.272
		c-0.568,0.254-1.151,0.265-1.746,0.037l-15.876-6.094c-0.599-0.23-1.172-0.237-1.724-0.021c-0.554,0.217-0.944,0.622-1.173,1.218
		l-21.159,55.122c-0.229,0.597-0.61,1.029-1.14,1.295c-0.53,0.267-1.094,0.285-1.69,0.057l-15.541-5.966
		c-0.597-0.229-1.023-0.627-1.274-1.194c-0.253-0.566-0.264-1.148-0.035-1.746l21.16-55.122c0.229-0.596,0.227-1.151,0-1.668
		c-0.231-0.517-0.644-0.888-1.239-1.116l-15.878-6.095c-0.597-0.229-1.021-0.626-1.273-1.196c-0.253-0.566-0.265-1.147-0.036-1.744
		l5.666-14.759c0.543-1.415,1.524-1.853,2.94-1.309l15.878,6.095l4.137,1.588l15.541,5.966l4.138,1.589l15.876,6.094
		c0.596,0.229,1.021,0.628,1.274,1.194C589.051,599.492,589.063,600.075,588.835,600.67z"/>

		<rect x="456.509" y="574.613" transform="matrix(-0.9336 -0.3584 0.3584 -0.9336 701.0291 1299.5145)" fill="#FFFFFF" width="28.864" height="20.359"/>

		<rect x="297.389" y="512.572" transform="matrix(-0.9336 -0.3584 0.3584 -0.9336 419.7982 1117.9194)" fill="#FFFFFF" width="32.215" height="14.971"/>
	<g>
		<path fill="#FFFFFF" d="M130.019,882.843c1.689-13.331,4.871-27.045,9.563-41.112c14.668-43.981,34.395-72.665,60.14-87.394
			c-3.807-1.669-7.878-3.496-12.236-5.49c-14.684-6.718-24.997-12.6-32.456-18.511c-6.382-5.057-12.825-10.912-19.151-17.403
			c-9.86-10.116-15.808-21.596-17.677-34.119c-1.693-11.346-0.252-23.131,4.283-35.027l3.915-10.269
			c-27.237-1.133-54.61-1.737-82.126-1.737c-14.798,0-29.555,0.179-44.274,0.508v250.554H130.019z"/>
	</g>
</g>
</svg>
